<svg id="Layer_1" data-name="Layer 1" xmlns="http://www.w3.org/2000/svg" viewBox="0 0 497.53 499.52"><defs><style>.cls-1{fill:#ececec;}.cls-2{fill:#375a64;}.cls-3{fill:#656d78;}.cls-4{fill:#ccd1d9;}.cls-5{fill:#f5f7fa;}.cls-6{fill:#5d9cec;}.cls-7{fill:#fff;}.cls-8{fill:#e6e9ed;}</style></defs><path class="cls-1" d="M34,32.56l.89,1.63a11,11,0,0,0,4.37,4.33l1.64.89-1.64.89a11,11,0,0,0-4.37,4.32L34,46.25l-.9-1.63a11,11,0,0,0-4.37-4.32L27,39.41l1.64-.89a11,11,0,0,0,4.37-4.33Z" transform="translate(-1.48 0.27)"/><path class="cls-1" d="M212.49,27.59,214,30.4a18.65,18.65,0,0,0,7.47,7.47l2.8,1.54-2.8,1.53A18.77,18.77,0,0,0,214,48.41l-1.54,2.81L211,48.41a18.9,18.9,0,0,0-7.47-7.47l-2.81-1.53,2.81-1.54A18.77,18.77,0,0,0,211,30.4Z" transform="translate(-1.48 0.27)"/><path class="cls-1" d="M495.59,72.26l.44.81a5.47,5.47,0,0,0,2.16,2.16l.82.45-.82.44A5.43,5.43,0,0,0,496,78.29l-.44.81-.45-.81A5.43,5.43,0,0,0,493,76.12l-.82-.44.82-.45a5.47,5.47,0,0,0,2.16-2.16Z" transform="translate(-1.48 0.27)"/><path class="cls-1" d="M32.81,250.59l.44.81a5.46,5.46,0,0,0,2.17,2.17l.81.44-.81.45a5.37,5.37,0,0,0-2.17,2.16l-.44.81-.45-.81a5.41,5.41,0,0,0-2.16-2.16l-.81-.45.81-.44a5.5,5.5,0,0,0,2.16-2.17Z" transform="translate(-1.48 0.27)"/><path class="cls-2" d="M448.92,282.13l.91,1.68a11.17,11.17,0,0,0,4.46,4.45l1.67.92-1.67.92a11.17,11.17,0,0,0-4.46,4.45l-.91,1.68-.92-1.68a11.14,11.14,0,0,0-4.45-4.45l-1.68-.92,1.68-.92a11.14,11.14,0,0,0,4.45-4.45Z" transform="translate(-1.48 0.27)"/><path class="cls-2" d="M98.39-.27,99,.8a7.16,7.16,0,0,0,2.83,2.84l1.07.58-1.07.58A7.16,7.16,0,0,0,99,7.64l-.59,1.07-.58-1.07A7.18,7.18,0,0,0,95,4.8L93.9,4.22,95,3.64A7.18,7.18,0,0,0,97.81.8Z" transform="translate(-1.48 0.27)"/><path class="cls-2" d="M120.35,475.49l.29.54a3.59,3.59,0,0,0,1.42,1.42l.53.29-.53.29a3.59,3.59,0,0,0-1.42,1.42l-.29.53-.29-.53a3.59,3.59,0,0,0-1.42-1.42l-.54-.29.54-.29a3.59,3.59,0,0,0,1.42-1.42Z" transform="translate(-1.48 0.27)"/><path class="cls-2" d="M88.83,306l.29.53a3.59,3.59,0,0,0,1.42,1.42l.54.29-.54.29a3.59,3.59,0,0,0-1.42,1.42l-.29.54-.29-.54a3.59,3.59,0,0,0-1.42-1.42l-.53-.29.53-.29a3.59,3.59,0,0,0,1.42-1.42Z" transform="translate(-1.48 0.27)"/><path class="cls-2" d="M495.17,251.54l.29.54a3.59,3.59,0,0,0,1.42,1.42l.53.29-.53.29a3.59,3.59,0,0,0-1.42,1.42l-.29.53-.29-.53a3.59,3.59,0,0,0-1.42-1.42l-.54-.29.54-.29a3.59,3.59,0,0,0,1.42-1.42Z" transform="translate(-1.48 0.27)"/><path class="cls-2" d="M389.66,490.27l.59,1.07a7.12,7.12,0,0,0,2.84,2.84l1.06.58-1.06.58a7.12,7.12,0,0,0-2.84,2.84l-.59,1.07-.58-1.07a7.12,7.12,0,0,0-2.84-2.84l-1.06-.58,1.06-.58a7.12,7.12,0,0,0,2.84-2.84Z" transform="translate(-1.48 0.27)"/><path class="cls-2" d="M423.87,35.88l1.58,2.89a19.48,19.48,0,0,0,7.69,7.69L436,48l-2.89,1.58a19.35,19.35,0,0,0-7.69,7.69l-1.58,2.89-1.58-2.89a19.23,19.23,0,0,0-7.69-7.69L411.71,48l2.89-1.58a19.35,19.35,0,0,0,7.69-7.69Z" transform="translate(-1.48 0.27)"/><path class="cls-2" d="M34.76,385.8a35,35,0,0,1-11.9-61.73,35,35,0,1,0,34.61,60.17A34.82,34.82,0,0,1,34.76,385.8Z" transform="translate(-1.48 0.27)"/><path class="cls-2" d="M279.53,342.28l1.58,2.89a19.23,19.23,0,0,0,7.69,7.69l2.89,1.58L288.8,356a19.27,19.27,0,0,0-7.69,7.68l-1.58,2.9-1.58-2.9a19.39,19.39,0,0,0-7.69-7.68l-2.89-1.59,2.89-1.58a19.35,19.35,0,0,0,7.69-7.69Z" transform="translate(-1.48 0.27)"/><path class="cls-3" d="M377.15,399.71l19.68-19.61,9.8-9.87,80.53,80.52a27.8,27.8,0,0,1-39.28,39.36l-80.53-80.52Z" transform="translate(-1.48 0.27)"/><path class="cls-4" d="M358.51,341.71l38.32,38.39-19.68,19.61-38.32-38.25c3.55-3,6.95-6.12,10.29-9.45S355.59,345.26,358.51,341.71Z" transform="translate(-1.48 0.27)"/><path class="cls-5" d="M321.59,199.3V355.56a146.18,146.18,0,0,1-176.91,3.2c-1.31-1-2.57-2-3.89-3.05V164.53h146Z" transform="translate(-1.48 0.27)"/><path class="cls-6" d="M122.63,331.83a154,154,0,0,1-13.56-17.45,146.12,146.12,0,0,1-15.84-32.05c-1.6-4.52-2.93-9.05-4-13.56a146.79,146.79,0,0,1,0-69.54c1.11-4.52,2.44-9,4-13.56a146.19,146.19,0,0,1,15.84-32.06,154,154,0,0,1,13.56-17.45q2.5-2.72,5.22-5.43a146,146,0,0,1,206.46,0A148.77,148.77,0,0,1,353,153.61a144.26,144.26,0,0,1,7.38,12.45,138,138,0,0,1,6,13,146.46,146.46,0,0,1,0,109.88,138,138,0,0,1-6,13A141.59,141.59,0,0,1,353,314.38a148.11,148.11,0,0,1-31.42,34.22V199.3l-34.77-34.77h-146V348.74a128.72,128.72,0,0,1-12.93-11.48Q125.15,334.56,122.63,331.83Z" transform="translate(-1.48 0.27)"/><path class="cls-7" d="M321.59,199.3H286.82V164.53Z" transform="translate(-1.48 0.27)"/><path class="cls-8" d="M89.19,268.77a131.05,131.05,0,0,0,4,13.56,143.77,143.77,0,0,0,29.4,49.5c1.67,1.82,3.34,3.63,5.15,5.43h.07a130.83,130.83,0,0,0,12.93,11.47v.07c1.32,1,2.58,2,3.9,3a146.18,146.18,0,0,0,176.91-3.2,148.91,148.91,0,0,0,12.72-11.33h.07a148.24,148.24,0,0,0,26-35.33,139.38,139.38,0,0,0,6-13,146.56,146.56,0,0,0,0-109.88,140.58,140.58,0,0,0-6-13c-2.23-4.23-4.66-8.34-7.38-12.45a144.86,144.86,0,0,0-18.64-22.87h-.07a146,146,0,0,0-206.46,0h-.07c-1.81,1.81-3.48,3.62-5.15,5.42a143.7,143.7,0,0,0-29.4,49.51,131.05,131.05,0,0,0-4,13.56A146.83,146.83,0,0,0,89.19,268.77ZM113,116A166.89,166.89,0,0,1,358.51,341.71c-2.92,3.55-6.05,7-9.39,10.29s-6.75,6.47-10.29,9.46A167,167,0,0,1,113,352C47.88,286.85,47.88,181.14,113,116Z" transform="translate(-1.48 0.27)"/><path class="cls-4" d="M286.82,248.07H175.56a6.95,6.95,0,1,1,0-13.9H286.82a7,7,0,1,1,0,13.9Z" transform="translate(-1.48 0.27)"/><path class="cls-4" d="M286.82,275.92H175.56a7,7,0,0,1,0-13.91H286.82a7,7,0,1,1,0,13.91Z" transform="translate(-1.48 0.27)"/><path class="cls-4" d="M286.82,303.73H175.56a7,7,0,0,1,0-13.91H286.82a7,7,0,1,1,0,13.91Z" transform="translate(-1.48 0.27)"/><path class="cls-4" d="M231.14,331.55H175.56a7,7,0,0,1,0-13.91h55.58a7,7,0,0,1,0,13.91Z" transform="translate(-1.48 0.27)"/></svg>