<?xml version="1.0"?>
<svg xmlns="http://www.w3.org/2000/svg" viewBox="0 0 64 64" width="512" height="512"><title>01 Agreement Document</title><g id="_01_Agreement_Document" data-name="01 Agreement Document"><path d="M53,3H16a2,2,0,0,0-2,2V9a1,1,0,0,0,1,1H48V54a1,1,0,0,0,1,1h4a2,2,0,0,0,2-2V5A2,2,0,0,0,53,3Z" style="fill:#dcdcdc"/><path d="M48,8H11a2,2,0,0,0-2,2V58a2,2,0,0,0,2,2H26a1,1,0,0,0,1-1V57H41v2a1,1,0,0,0,1,1h6a2,2,0,0,0,2-2V10A2,2,0,0,0,48,8Z" style="fill:#f1f1f1"/><path d="M42,55H26a1,1,0,0,0-1,1v3a2,2,0,0,0,2,2H41a2,2,0,0,0,2-2V56A1,1,0,0,0,42,55Z" style="fill:#016769"/><path d="M38.035,33.56a6.033,6.033,0,0,0-4.621-1.532A6.163,6.163,0,0,0,28,38.215v3.956a4.388,4.388,0,0,0,1.293,3.122A2.432,2.432,0,0,1,30,47v5a1,1,0,0,0,1,1h6a1,1,0,0,0,1-1V47a2.429,2.429,0,0,1,.708-1.707A4.391,4.391,0,0,0,40,42.171V38A6.011,6.011,0,0,0,38.035,33.56Z" style="fill:#01ced1"/><path d="M40,51H28a5.006,5.006,0,0,0-5,5,1,1,0,0,0,1,1H44a1,1,0,0,0,1-1A5.006,5.006,0,0,0,40,51Z" style="fill:#34d8da"/><path d="M26,16H15a1,1,0,0,1,0-2H26a1,1,0,0,1,0,2Z" style="fill:#0f4880"/><path d="M25,21H15a1,1,0,0,1,0-2H25a1,1,0,0,1,0,2Z" style="fill:#0f4880"/><path d="M19,26H15a1,1,0,0,1,0-2h4a1,1,0,0,1,0,2Z" style="fill:#0f4880"/><path d="M28,31H15a1,1,0,0,1,0-2H28a1,1,0,0,1,0,2Z" style="fill:#0f4880"/><path d="M25,36H15a1,1,0,0,1,0-2H25a1,1,0,0,1,0,2Z" style="fill:#0f4880"/><path d="M25,41H15a1,1,0,0,1,0-2H25a1,1,0,0,1,0,2Z" style="fill:#0f4880"/><path d="M19,46H15a1,1,0,0,1,0-2h4a1,1,0,0,1,0,2Z" style="fill:#0f4880"/><circle cx="37" cy="21" r="9" style="fill:#78bcff"/><path d="M36,25a1,1,0,0,1-.707-.293l-3-3a1,1,0,0,1,1.414-1.414L36,22.586l4.293-4.293a1,1,0,0,1,1.414,1.414l-5,5A1,1,0,0,1,36,25Z" style="fill:#166cbf"/></g></svg>
