<?xml version="1.0"?>
<svg xmlns="http://www.w3.org/2000/svg" viewBox="0 0 64 64" width="512px" height="512px"><g><g id="Headphone"><path d="M60,30.184V23A21.024,21.024,0,0,0,39,2H25A21.024,21.024,0,0,0,4,23v7.184A3,3,0,0,0,2,33v8a3,3,0,0,0,3,3v7a9.01,9.01,0,0,0,9,9H25.184A3,3,0,0,0,28,62h8a3,3,0,0,0,0-6H28a3,3,0,0,0-2.816,2H14a7.008,7.008,0,0,1-7-7V44H8.1A5.009,5.009,0,0,0,13,48h4a1,1,0,0,0,1-1V27a1,1,0,0,0-1-1H13a4.948,4.948,0,0,0-3,1.026V23A15.017,15.017,0,0,1,25,8H39A15.017,15.017,0,0,1,54,23v4.026A4.948,4.948,0,0,0,51,26H47a1,1,0,0,0-1,1V47a1,1,0,0,0,1,1h4a5.009,5.009,0,0,0,4.9-4H59a3,3,0,0,0,3-3V33A3,3,0,0,0,60,30.184ZM28,58h8a1,1,0,0,1,0,2H28a1,1,0,0,1,0-2ZM4,41V33a1,1,0,0,1,1-1H8V42H5A1,1,0,0,1,4,41Zm9-13h3V46H13a3,3,0,0,1-3-3V31A3,3,0,0,1,13,28ZM39,6H25A17.019,17.019,0,0,0,8,23v7H6V23A19.021,19.021,0,0,1,25,4H39A19.021,19.021,0,0,1,58,23v7H56V23A17.019,17.019,0,0,0,39,6ZM54,43a3,3,0,0,1-3,3H48V28h3a3,3,0,0,1,3,3Zm6-2a1,1,0,0,1-1,1H56V32h3a1,1,0,0,1,1,1Z" data-original="#000000" class="active-path" data-old_color="#000000" fill="#FFFFFF"/></g></g> </svg>
