<?xml version="1.0" encoding="iso-8859-1"?>
<!-- Generator: Adobe Illustrator 19.0.0, SVG Export Plug-In . SVG Version: 6.00 Build 0)  -->
<svg version="1.1" id="Layer_1" xmlns="http://www.w3.org/2000/svg" xmlns:xlink="http://www.w3.org/1999/xlink" x="0px" y="0px"
	 viewBox="0 0 426.667 426.667" style="enable-background:new 0 0 426.667 426.667;" xml:space="preserve">
<g>
	<g>
		<path d="M405.333,149.336h-81.131l40.576-70.272c5.888-10.219,2.389-23.253-7.808-29.163L283.072,7.235
			c-4.907-2.837-10.752-3.605-16.192-2.133c-5.461,1.451-10.133,5.035-12.949,9.941l-40.597,70.293l-40.576-70.272
			c-2.837-4.907-7.488-8.491-12.949-9.941c-5.461-1.472-11.285-0.704-16.192,2.133L69.739,49.923
			c-10.197,5.867-13.696,18.923-7.808,29.141l40.597,70.272H21.333C9.557,149.336,0,158.894,0,170.67v85.333
			c0,11.776,9.557,21.333,21.333,21.333h81.173L61.931,347.63c-5.888,10.219-2.389,23.253,7.808,29.141l73.899,42.667
			c3.264,1.877,6.955,2.859,10.667,2.859c1.856,0,3.712-0.235,5.525-0.725c5.461-1.451,10.133-5.035,12.949-9.941l40.576-70.336
			l40.576,70.293c2.837,4.885,7.488,8.469,12.949,9.941c5.461,1.472,11.285,0.704,16.192-2.133l73.877-42.667
			c10.219-5.888,13.696-18.944,7.808-29.141l-40.555-70.251h81.131c11.776,0,21.333-9.557,21.333-21.333V170.67
			C426.667,158.894,417.109,149.336,405.333,149.336z M384,234.67h-96.747c-7.616,0-14.677,4.053-18.475,10.667
			c-3.797,6.613-3.797,14.72,0,21.333l48.384,83.776l-36.928,21.333l-48.384-83.819c-7.616-13.205-29.333-13.184-36.949,0
			l-48.405,83.861l-36.928-21.333l48.363-83.819c3.797-6.613,3.797-14.72,0-21.333c-3.819-6.613-10.859-10.667-18.475-10.667H42.667
			v-42.667h96.811c7.616,0,14.677-4.053,18.475-10.667c3.797-6.613,3.797-14.72,0-21.333l-48.405-83.819l36.928-21.333
			l48.384,83.819c7.616,13.205,29.333,13.205,36.949,0l48.384-83.819l36.949,21.333l-48.363,83.819
			c-3.797,6.613-3.797,14.741,0,21.333c3.819,6.613,10.859,10.667,18.475,10.667H384V234.67z"/>
	</g>
</g>
<g>
</g>
<g>
</g>
<g>
</g>
<g>
</g>
<g>
</g>
<g>
</g>
<g>
</g>
<g>
</g>
<g>
</g>
<g>
</g>
<g>
</g>
<g>
</g>
<g>
</g>
<g>
</g>
<g>
</g>
</svg>
