<?xml version="1.0" encoding="iso-8859-1"?>
<!-- Generator: Adobe Illustrator 19.0.0, SVG Export Plug-In . SVG Version: 6.00 Build 0)  -->
<svg version="1.1" id="Layer_1" xmlns="http://www.w3.org/2000/svg" xmlns:xlink="http://www.w3.org/1999/xlink" x="0px" y="0px"
	 viewBox="0 0 512 512" style="enable-background:new 0 0 512 512;" xml:space="preserve">
<path style="fill:#E6F2FF;" d="M495.527,83.066c-6.568-6.456-17.03-6.343-23.486,0.111L267.798,287.421
	c-6.457,6.456-17.141,6.456-23.598,0L39.959,83.178c-6.457-6.456-16.918-6.567-23.486-0.111C5.899,93.529,0,107.553,0,122.468
	v267.13c0,9.35,2.337,18.254,6.457,25.934c5.343,10.129,13.69,18.365,23.818,23.598c7.57,3.896,16.25,6.122,25.377,6.122h400.696
	c9.461,0,18.365-2.337,26.157-6.456c10.017-5.454,18.143-13.69,23.374-23.819c3.897-7.569,6.122-16.25,6.122-25.377v-267.13
	C512,107.553,506.101,93.529,495.527,83.066z"/>
<path style="fill:#BDDEFF;" d="M456.348,445.251c9.461,0,18.365-2.337,26.157-6.456c10.017-5.454,18.143-13.69,23.374-23.819
	c3.897-7.569,6.122-16.25,6.122-25.377v-267.13c0-14.915-5.899-28.939-16.473-39.402c-6.568-6.456-17.03-6.343-23.486,0.111
	L267.798,287.421c-3.228,3.228-7.513,4.841-11.799,4.841v152.989H456.348z"/>
<path style="fill:#FFC033;" d="M255.97,325.596c-12.826,0-25.641-4.881-35.403-14.641L6.335,96.717
	c1.469-2.74,3.112-5.313,4.909-7.708c10.707-14.271,26.88-22.261,44.378-22.261h400.696c17.497,0,33.671,7.988,44.378,22.261
	c1.796,2.395,3.439,4.966,4.909,7.708L291.372,310.955C281.612,320.717,268.797,325.596,255.97,325.596z"/>
<path style="fill:#B7C4CC;" d="M505.878,414.976c-5.231,10.129-13.357,18.365-23.374,23.819L366.97,323.818
	c-6.567-6.456-6.567-17.03,0-23.597c6.568-6.567,17.03-6.567,23.598,0L505.878,414.976z"/>
<path style="fill:#C9D2D9;" d="M150.595,323.818L30.275,439.129c-10.128-5.231-18.475-13.468-23.818-23.598l121.209-115.978
	c6.679-6.344,17.252-6.01,23.598,0.668C157.606,306.9,157.273,317.473,150.595,323.818z"/>
<path style="fill:#F9A926;" d="M505.606,96.717c-1.469-2.74-3.112-5.313-4.909-7.708c-10.707-14.273-26.881-22.261-44.378-22.261
	H255.971v258.848c12.826,0,25.641-4.881,35.403-14.641L505.606,96.717z"/>
<g>
</g>
<g>
</g>
<g>
</g>
<g>
</g>
<g>
</g>
<g>
</g>
<g>
</g>
<g>
</g>
<g>
</g>
<g>
</g>
<g>
</g>
<g>
</g>
<g>
</g>
<g>
</g>
<g>
</g>
</svg>
