<svg xmlns="http://www.w3.org/2000/svg" width="512" height="512" viewBox="0 0 41.451 41.451">
  <g id="close" transform="translate(2.451 21.725) rotate(135)">
    <g id="Group_7" data-name="Group 7" transform="translate(-28.284 -26.87)">
      <path id="Path_1" data-name="Path 1" d="M14.655,0A14.655,14.655,0,1,0,24.811,25.221a.6.6,0,0,0-.827-.86,13.419,13.419,0,1,1,3.232-4.851.6.6,0,1,0,1.113.43A14.664,14.664,0,0,0,14.655,0Z" fill="#486eb9"/>
      <path id="Path_2" data-name="Path 2" d="M158.435,158.592a.6.6,0,1,0-.835.852l4.7,4.6a.6.6,0,0,0,.835-.853Z" transform="translate(-141.772 -142.673)" fill="#486eb9"/>
      <path id="Path_3" data-name="Path 3" d="M82.857,83.7a.6.6,0,1,0,.844-.843l-4.5-4.5a.6.6,0,0,0-.843.843Z" transform="translate(-70.413 -70.412)" fill="#486eb9"/>
      <path id="Path_4" data-name="Path 4" d="M91.776,78.359a.6.6,0,0,0-.843,0L78.359,90.932a.6.6,0,0,0,.844.843L91.776,79.2A.6.6,0,0,0,91.776,78.359Z" transform="translate(-70.412 -70.412)" fill="#486eb9"/>
    </g>
  </g>
</svg>
