<svg height="512pt" viewBox="-31 0 512 512" width="512pt" xmlns="http://www.w3.org/2000/svg"><path d="m404 512c-25.40625 0-46-20.59375-46-46v-134h92v134c0 25.40625-20.59375 46-46 46zm0 0" fill="#96beed"/><path d="m404 511.988281c-24.5625-.523437-44-21.125-44-45.726562v-451.261719c0-8.28125-6.71875-15-15-15h-241l-104 104v348c0 33.078125 26.921875 60 60 60zm0 0" fill="#e8efff"/><path d="m360 466.261719v-451.261719c0-8.28125-6.71875-15-15-15h-165v512l224-.011719c-24.558594-.527343-44-21.128906-44-45.726562zm0 0" fill="#ccdfff"/><path d="m104 0-104 104h89c8.285156 0 15-6.714844 15-15zm0 0" fill="#b4d8fc"/><path d="m285 182h-210c-8.285156 0-15-6.714844-15-15s6.714844-15 15-15h210c8.285156 0 15 6.714844 15 15s-6.714844 15-15 15zm0 0" fill="#40b4f9"/><path d="m300 167c0 8.28125-6.71875 15-15 15h-105v-30h105c8.28125 0 15 6.71875 15 15zm0 0" fill="#0097f1"/><path d="m285 242h-210c-8.285156 0-15-6.714844-15-15s6.714844-15 15-15h210c8.285156 0 15 6.714844 15 15s-6.714844 15-15 15zm0 0" fill="#40b4f9"/><path d="m300 227c0 8.28125-6.71875 15-15 15h-105v-30h105c8.28125 0 15 6.71875 15 15zm0 0" fill="#0097f1"/><path d="m285 302h-210c-8.285156 0-15-6.714844-15-15s6.714844-15 15-15h210c8.285156 0 15 6.714844 15 15s-6.714844 15-15 15zm0 0" fill="#40b4f9"/><path d="m300 287c0 8.28125-6.71875 15-15 15h-105v-30h105c8.28125 0 15 6.71875 15 15zm0 0" fill="#0097f1"/><path d="m285 362h-210c-8.285156 0-15-6.714844-15-15s6.714844-15 15-15h210c8.285156 0 15 6.714844 15 15s-6.714844 15-15 15zm0 0" fill="#40b4f9"/><path d="m300 347c0 8.28125-6.71875 15-15 15h-105v-30h105c8.28125 0 15 6.71875 15 15zm0 0" fill="#0097f1"/><path d="m225 422h-150c-8.285156 0-15-6.714844-15-15s6.714844-15 15-15h150c8.285156 0 15 6.714844 15 15s-6.714844 15-15 15zm0 0" fill="#40b4f9"/><path d="m240 407c0 8.28125-6.71875 15-15 15h-45v-30h45c8.28125 0 15 6.71875 15 15zm0 0" fill="#0097f1"/></svg>