<?xml version="1.0" encoding="iso-8859-1"?>
<!-- Generator: Adobe Illustrator 19.0.0, SVG Export Plug-In . SVG Version: 6.00 Build 0)  -->
<svg version="1.1" id="Capa_1" xmlns="http://www.w3.org/2000/svg" xmlns:xlink="http://www.w3.org/1999/xlink" x="0px" y="0px"
	 viewBox="0 0 491.52 491.52" style="enable-background:new 0 0 491.52 491.52;" xml:space="preserve">
<circle style="fill:#45B39C;" cx="245.76" cy="245.76" r="245.76"/>
<path style="opacity:0.1;enable-background:new    ;" d="M104.96,104.96v69.888l41.523,41.523c-0.102,0.409-0.204,0.819-0.256,1.229
	l-17.409,105.677l-11.469-3.328l-11.366,39.27L238.09,491.326c2.552,0.078,5.096,0.194,7.669,0.194
	c135.73,0,245.76-110.03,245.76-245.76c0-13.256-1.082-26.255-3.103-38.942L386.56,104.96H104.96z"/>
<rect x="104.96" y="104.96" style="fill:#64798A;" width="281.6" height="69.868"/>
<path style="fill:#3A556A;" d="M327.305,127.896h-163.09c-5.641,0-10.214,4.573-10.214,10.214c0,5.641,4.573,10.214,10.214,10.214
	h163.089c5.641,0,10.214-4.573,10.214-10.214S332.945,127.896,327.305,127.896z"/>
<polygon style="fill:#EBF0F3;" points="198.901,282.885 204.107,288.133 209.313,282.885 214.521,288.133 219.727,282.885 
	224.933,288.133 230.139,282.885 235.347,288.133 240.553,282.885 245.76,288.133 250.966,282.885 256.173,288.133 261.379,282.885 
	266.586,288.133 271.792,282.885 276.999,288.133 282.205,282.885 287.412,288.133 292.618,282.885 297.825,288.133 
	297.825,127.896 193.695,127.896 193.695,288.133 "/>
<g>
	<rect x="202" y="257.84" style="fill:#D5D6DB;" width="48.29" height="4.664"/>
	<rect x="202.02" y="241.86" style="fill:#D5D6DB;" width="53.591" height="4.664"/>
	<rect x="202" y="225.94" style="fill:#D5D6DB;" width="36.659" height="4.664"/>
</g>
<g>
	<rect x="202" y="208.8" style="fill:#27A2DB;" width="36.659" height="4.664"/>
	<rect x="272.12" y="208.8" style="fill:#27A2DB;" width="17.367" height="4.664"/>
</g>
<g>
	<rect x="272.12" y="225.94" style="fill:#D5D6DB;" width="17.367" height="4.664"/>
	<rect x="272.12" y="241.86" style="fill:#D5D6DB;" width="17.367" height="4.664"/>
	<rect x="272.12" y="257.84" style="fill:#D5D6DB;" width="17.367" height="4.664"/>
	<rect x="202.03" y="189.69" style="fill:#D5D6DB;" width="43.745" height="4.664"/>
</g>
<rect x="202" y="174.38" style="fill:#44C4A1;" width="87.5" height="4.664"/>
<circle style="fill:#E56353;" cx="245.76" cy="154.21" r="12.252"/>
<path style="opacity:0.5;fill:#3A556A;enable-background:new    ;" d="M337.518,138.11c0-5.641-4.573-10.214-10.214-10.214H164.215
	c-5.641,0-10.214,4.573-10.214,10.214"/>
<path style="fill:#FCD462;" d="M242.857,212.738c-3.872-2.619-9.004-2.399-12.636,0.543l-32.644,26.44
	c-4.268,3.457-10.788,1.579-12.369-3.677c-0.463-1.54-0.747-3.068-0.917-4.466c-0.43-3.543,1.717-6.897,5.071-8.13l4.334-1.595
	v-29.056l-27.364,4.605c-10.338,1.74-18.425,9.85-20.123,20.181l-18.733,113.979l54.443,15.029
	c28.887-28.521,34.751-48.216,34.372-64.12c-0.216-9.062,2.712-17.915,8.009-25.276l21.226-29.502
	C249.01,222.849,247.804,216.085,242.857,212.738z"/>
<rect x="109.728" y="332.83" transform="matrix(0.961 0.2767 -0.2767 0.961 103.9699 -30.2306)" style="fill:#64798A;" width="98.745" height="40.897"/>
<ellipse transform="matrix(-0.2767 0.961 -0.961 -0.2767 596.3565 277.6273)" style="fill:#FFFFFF;" cx="193.697" cy="363.245" rx="7.434" ry="7.445"/>
<g>
</g>
<g>
</g>
<g>
</g>
<g>
</g>
<g>
</g>
<g>
</g>
<g>
</g>
<g>
</g>
<g>
</g>
<g>
</g>
<g>
</g>
<g>
</g>
<g>
</g>
<g>
</g>
<g>
</g>
</svg>
