<svg height="512pt" viewBox="-27 0 512 512" width="512pt" xmlns="http://www.w3.org/2000/svg"><path d="m0 27.273438v457.453124c0 15.0625 12.210938 27.273438 27.273438 27.273438h348.230468c15.058594 0 27.269532-12.210938 27.269532-27.273438v-364.453124l-120.273438-120.273438h-255.226562c-15.0625 0-27.273438 12.210938-27.273438 27.273438zm0 0" fill="#ebeef2"/><path d="m375.503906 512c15.058594 0 27.269532-12.210938 27.269532-27.273438v-364.453124l-95.457032-95.457032v127.191406c0 11.375 9.21875 20.589844 20.589844 20.589844h20.617188v339.402344zm0 0" fill="#d0d0e0"/><path d="m282.5 0 120.273438 120.273438h-99.667969c-11.378907 0-20.605469-9.226563-20.605469-20.605469zm0 0" fill="#fd7b68"/><path d="m453.644531 371.707031-98.089843-88.097656c-7.222657-6.484375-18.710938-1.363281-18.710938 8.34375v38.289063c-141.789062 7.59375-174.519531 121.972656-182.066406 174.363281-.957032 6.636719 7.523437 10.128906 11.5625 4.777343 35.738281-47.304687 91.894531-75.722656 152.140625-75.722656h18.363281v34.488282c0 9.703124 11.488281 14.828124 18.710938 8.34375l98.089843-88.097657c4.960938-4.457031 4.960938-12.230469 0-16.6875zm0 0" fill="#78aceb"/><path d="m318.480469 373.921875c-57.414063 0-111.097657 25.820313-146.949219 69.191406-9.660156 23.101563-14.417969 45.269531-16.753906 61.492188-.957032 6.636719 7.523437 10.128906 11.5625 4.777343 35.738281-47.304687 91.894531-75.722656 152.140625-75.722656h18.363281v34.488282c0 9.703124 11.488281 14.828124 18.710938 8.34375l98.089843-88.097657c4.214844-3.789062 4.835938-9.964843 1.882813-14.472656zm0 0" fill="#4d70d1"/><g fill="#6f7587"><path d="m49.488281 77.28125h155.566407c4.265624 0 7.726562-3.460938 7.726562-7.726562 0-4.269532-3.460938-7.726563-7.726562-7.726563h-155.566407c-4.269531 0-7.726562 3.457031-7.726562 7.726563 0 4.265624 3.457031 7.726562 7.726562 7.726562zm0 0"/><path d="m49.488281 128.105469h155.566407c4.265624 0 7.726562-3.457031 7.726562-7.726563 0-4.265625-3.460938-7.726562-7.726562-7.726562h-155.566407c-4.269531 0-7.726562 3.460937-7.726562 7.726562 0 4.269532 3.457031 7.726563 7.726562 7.726563zm0 0"/><path d="m353.285156 213.25h-303.796875c-4.269531 0-7.726562 3.460938-7.726562 7.726562 0 4.269532 3.460937 7.726563 7.726562 7.726563h303.796875c4.269532 0 7.726563-3.460937 7.726563-7.726563 0-4.265624-3.457031-7.726562-7.726563-7.726562zm0 0"/><path d="m282.5 282.921875h-233.011719c-4.269531 0-7.726562 3.460937-7.726562 7.726563 0 4.265624 3.460937 7.726562 7.726562 7.726562h233.011719c4.269531 0 7.726562-3.460938 7.726562-7.726562 0-4.265626-3.457031-7.726563-7.726562-7.726563zm0 0"/><path d="m179.066406 352.597656h-129.578125c-4.269531 0-7.726562 3.457032-7.726562 7.722656 0 4.269532 3.460937 7.726563 7.726562 7.726563h129.578125c4.269532 0 7.726563-3.457031 7.726563-7.726563 0-4.265624-3.457031-7.722656-7.726563-7.722656zm0 0"/></g></svg>