<?xml version="1.0" encoding="iso-8859-1"?>
<!-- Generator: Adobe Illustrator 19.0.0, SVG Export Plug-In . SVG Version: 6.00 Build 0)  -->
<svg version="1.1" id="Layer_1" xmlns="http://www.w3.org/2000/svg" xmlns:xlink="http://www.w3.org/1999/xlink" x="0px" y="0px"
	 viewBox="0 0 512 512" style="enable-background:new 0 0 512 512;" xml:space="preserve">
<path style="fill:#E6F2FF;" d="M508.661,201.583c-2.115-4.786-6.344-8.348-11.464-9.572s-10.463,0.111-14.47,3.45L267.019,375.663
	c-3.183,2.738-7.112,4.096-11.019,4.107c-3.907-0.011-7.836-1.369-11.019-4.107L29.273,195.462c-4.007-3.339-9.35-4.675-14.47-3.45
	c-5.12,1.224-9.35,4.786-11.464,9.572C1.113,206.592,0,211.823,0,217.166V461.59c0,7.791,1.781,15.137,5.009,21.704
	c4.897,10.351,13.357,18.699,23.708,23.485c6.456,3.228,13.69,4.897,21.37,4.897h411.826c7.68,0,14.915-1.67,21.37-4.897
	c10.351-4.786,18.81-13.134,23.708-23.485c3.228-6.567,5.009-13.913,5.009-21.704V217.166
	C512,211.823,510.887,206.592,508.661,201.583z"/>
<path style="fill:#BDDEFF;" d="M512,217.166V461.59c0,7.791-1.781,15.137-5.009,21.704c-4.897,10.351-13.357,18.699-23.708,23.485
	c-6.456,3.228-13.69,4.897-21.37,4.897H256V379.77c3.907-0.011,7.836-1.369,11.019-4.107l215.708-180.202
	c4.007-3.339,9.35-4.675,14.47-3.45c5.12,1.224,9.35,4.786,11.464,9.572C510.887,206.592,512,211.823,512,217.166z"/>
<path style="fill:#F9A926;" d="M417.391,288.514c-2.402,0-4.815-0.516-7.066-1.57c-5.88-2.745-9.63-8.642-9.63-15.125V141.704
	c0-6.478,3.75-12.375,9.62-15.12c5.88-2.745,12.793-1.848,17.772,2.298l69.902,58.32c4.652,3.897,8.37,8.897,10.761,14.467
	c2.913,6.777,1.033,14.663-4.63,19.397l-76.022,63.559C425.032,287.187,421.228,288.514,417.391,288.514z"/>
<path style="fill:#FFC033;" d="M347.609,100.074H164.391c-7.032,0-13.304-4.402-15.696-11.006c-2.391-6.609-0.392-14.005,5-18.511
	l69.902-58.326c18.359-15.913,46.435-15.908,65.033,0.196l69.674,58.131c5.392,4.506,7.392,11.902,5,18.511
	C360.913,95.672,354.641,100.074,347.609,100.074z"/>
<path style="fill:#F9A926;" d="M288.63,12.427C279.325,4.37,267.647,0.345,256,0.325v99.749h91.609
	c7.032,0,13.304-4.402,15.696-11.006c2.391-6.609,0.392-14.005-5-18.511L288.63,12.427z"/>
<path style="fill:#FFC033;" d="M94.609,288.514c-3.837,0-7.641-1.326-10.706-3.886L7.88,221.068
	c-5.663-4.734-7.543-12.62-4.63-19.397c2.391-5.571,6.108-10.571,10.739-14.451l69.924-58.337
	c4.979-4.157,11.902-5.054,17.772-2.298c5.869,2.745,9.62,8.642,9.62,15.12v130.114c0,6.483-3.75,12.38-9.63,15.125
	C99.424,287.998,97.011,288.514,94.609,288.514z"/>
<path style="fill:#FFEACC;" d="M384,66.682H128c-27.619,0-50.087,22.468-50.087,50.087v162.852l145.51,121.523
	c9.304,7.973,20.979,11.951,32.63,11.951c11.598,0,23.174-3.946,32.358-11.815l145.675-121.659V116.769
	C434.087,89.15,411.619,66.682,384,66.682z"/>
<path style="fill:#FFD9B3;" d="M384,66.682H256V413.09c0.019,0,0.036,0.004,0.055,0.004c11.598,0,23.174-3.946,32.358-11.815
	l145.674-121.659V116.769C434.087,89.15,411.619,66.682,384,66.682z"/>
<path style="fill:#C9D2D9;" d="M128.669,406.828L28.718,506.78c-10.352-4.786-18.812-13.134-23.709-23.485l100.063-100.063
	c6.568-6.567,17.03-6.567,23.598,0C135.235,389.688,135.235,400.373,128.669,406.828z"/>
<path style="fill:#B7C4CC;" d="M502.918,490.318c-0.011,0-0.011,0.011-0.011,0.011c-6.456,9.171-15.905,16.095-26.913,19.322
	c-0.245,0.078-0.49,0.145-0.735,0.2L372.202,406.828c-6.567-6.456-6.567-17.141,0-23.597c6.567-6.567,17.03-6.567,23.597,0
	L502.918,490.318z"/>
<g>
	<path style="fill:#F37B2A;" d="M350.609,266.808H161.391c-9.217,0-16.696-7.473-16.696-16.696c0-9.223,7.479-16.696,16.696-16.696
		h189.217c9.217,0,16.696,7.473,16.696,16.696C367.304,259.335,359.826,266.808,350.609,266.808z"/>
	<path style="fill:#F37B2A;" d="M350.609,200.025H161.391c-9.217,0-16.696-7.473-16.696-16.696c0-9.223,7.479-16.696,16.696-16.696
		h189.217c9.217,0,16.696,7.473,16.696,16.696C367.304,192.552,359.826,200.025,350.609,200.025z"/>
</g>
<g>
	<path style="fill:#E56722;" d="M256,200.025h94.609c9.217,0,16.696-7.473,16.696-16.696c0-9.223-7.479-16.696-16.696-16.696H256
		V200.025z"/>
	<path style="fill:#E56722;" d="M256,266.808h94.609c9.217,0,16.696-7.473,16.696-16.696c0-9.223-7.479-16.696-16.696-16.696H256
		V266.808z"/>
</g>
<g>
</g>
<g>
</g>
<g>
</g>
<g>
</g>
<g>
</g>
<g>
</g>
<g>
</g>
<g>
</g>
<g>
</g>
<g>
</g>
<g>
</g>
<g>
</g>
<g>
</g>
<g>
</g>
<g>
</g>
</svg>
