<svg id="Capa_1" enable-background="new 0 0 512 512" height="512" viewBox="0 0 512 512" width="512" xmlns="http://www.w3.org/2000/svg"><path d="m146 512h-80v-60l30-30h95v30c-24.813 0-45 20.187-45 45z" fill="#0066ae"/><path d="m446 512h-80v-15c0-24.813-20.187-45-45-45v-30h95l30 30z" fill="#004984"/><path d="m446 452h-380v-317c0-74.439 60.561-135 135-135h110c74.439 0 135 60.561 135 135z" fill="#57caff"/><path d="m446 135c0-74.439-60.561-135-135-135h-55v452h190z" fill="#08c8c8"/><path d="m446 135c0-74.439-60.561-135-135-135h-55v452h190z" fill="#00b0ff"/><path d="m326 172h-140c-24.813 0-45-20.187-45-45v-25h230v25c0 24.813-20.187 45-45 45z" fill="#004984"/><path d="m371 102h-115v70h70c24.813 0 45-20.187 45-45z" fill="#003365"/><path d="m156 270.91v111.09h200v-111.09l-100 22z" fill="#ffd700"/><path d="m356 382v-111.09l-100 22v89.09z" fill="#ffc200"/><path d="m356 232v38.91l-100 54.15-100-54.15v-38.91z" fill="#ff9a00"/><path d="m256 325.06 100-54.15v-38.91h-100z" fill="#f60"/></svg>