<?xml version="1.0"?>
<svg xmlns="http://www.w3.org/2000/svg" id="icon" viewBox="0 0 512 512" width="512" height="512"><title>keys</title><path d="M287.621,453.4l-69.549-185.64A94.643,94.643,0,1,0,168.8,288.44l5.507,12.206-4.323,1.706a11.8,11.8,0,0,0-6.644,15.309l4.6,11.651a11.8,11.8,0,0,0,15.309,6.645l5.936-2.343,10.405,23.059-4.221,1.914a11.8,11.8,0,0,0-5.873,15.622l5.173,11.406a11.8,11.8,0,0,0,15.622,5.874l4.157-1.886L227,417.413l-4.1,1.861A11.8,11.8,0,0,0,217.02,434.9l5.173,11.407a11.8,11.8,0,0,0,15.621,5.873l4.041-1.832,8.345,18.494A20.25,20.25,0,0,0,287.621,453.4Z" style="fill:#e6e6e6"/><path d="M222.868,280.565h0l-4.8-12.8a94.514,94.514,0,0,0,18.366-20.025c.8-1.167,1.548-2.349,2.282-3.539.285-.461.561-.924.837-1.388q.621-1.049,1.212-2.107A94.512,94.512,0,0,0,136.916,102.436a104.629,104.629,0,0,0,58.225,177.711L242.3,397.386a28.127,28.127,0,0,0,30.794,17.233Z" style="fill:#b3b3b3"/><path d="M458.6,304.137l-162-114.262A94.647,94.647,0,1,0,267.526,234.7l11.424,6.987-2.612,3.843a11.8,11.8,0,0,0,3.128,16.394l10.36,7.039a11.8,11.8,0,0,0,16.393-3.128l3.587-5.278,21.582,13.2-2.41,3.958a11.8,11.8,0,0,0,3.942,16.217l10.7,6.514a11.8,11.8,0,0,0,16.217-3.942l2.374-3.9,26.028,15.917-2.344,3.849a11.8,11.8,0,0,0,3.942,16.217l10.7,6.514a11.8,11.8,0,0,0,16.217-3.941l2.308-3.79,17.309,10.586A20.25,20.25,0,0,0,458.6,304.137ZM176.336,183.76a34.314,34.314,0,1,1,34.314-34.314A34.314,34.314,0,0,1,176.336,183.76Z" style="fill:#ffc476"/><path d="M63.836,191.326a94.318,94.318,0,0,0,49.653,86.41c0-.208.016-.413.016-.622A98.883,98.883,0,0,0,63.836,191.326Z" style="fill:#fff"/><path d="M334.87,216.866h0L301.38,193.244h0l-4.777-3.369a94.493,94.493,0,0,0,3.9-26.889c0-1.514-.043-3.016-.114-4.512-.026-.546-.071-1.087-.106-1.631-.061-.932-.125-1.862-.212-2.786-.064-.678-.142-1.352-.22-2.026q-.132-1.14-.289-2.274t-.347-2.281c-.1-.619-.215-1.234-.33-1.849-.159-.854-.319-1.706-.5-2.551-.088-.409-.189-.813-.282-1.22a93.79,93.79,0,0,0-3.028-10.463v0h0A94.558,94.558,0,0,0,202.638,68.5c-47.773,1.641-87.215,39.371-90.92,87.029a94.923,94.923,0,0,0,2.556,30.517l4.61,3.825a86.755,86.755,0,0,1,131.592-74.267c23.138,14.012,34.411,41.956,26.226,67.738q-.328,1.034-.693,2.073a23.054,23.054,0,0,0,8.327,26.126l1.746,1.276L396.194,287.58a21.584,21.584,0,0,0,30.234-6.137Z" style="fill:#e5a251"/><path d="M201.817,172.424a34.3,34.3,0,0,1-47.657,3.2,67.759,67.759,0,0,0-32.142,30.825,94.474,94.474,0,0,0,126.947,40.71,67.572,67.572,0,0,0-47.148-74.733Z" style="fill:#ffd9ab"/><path d="M235.911,386.321a5.716,5.716,0,0,0,5.295-7.852L201.124,279.16a5.712,5.712,0,1,0-10.594,4.276l40.083,99.309A5.714,5.714,0,0,0,235.911,386.321Z" style="fill:#333"/><path d="M211.374,423.858a17.4,17.4,0,0,0,.443,13.4l5.174,11.407a17.514,17.514,0,0,0,21.992,9.2l6.011,13.321a26.1,26.1,0,0,0,23.773,15.262,25.62,25.62,0,0,0,10.155-2.094A25.929,25.929,0,0,0,292.97,451.4L229.1,280.911a5.713,5.713,0,0,0-10.7,4.008l63.872,170.49a14.537,14.537,0,0,1-26.863,11.079l-8.346-18.5a5.713,5.713,0,0,0-7.567-2.852l-4.04,1.833a6.087,6.087,0,0,1-8.06-3.031l-5.174-11.406a6.089,6.089,0,0,1,3.034-8.06l4.1-1.862a5.714,5.714,0,0,0,2.846-7.552l-12.547-27.808a5.713,5.713,0,0,0-7.568-2.852l-4.157,1.885a6.1,6.1,0,0,1-8.059-3.032L194.7,371.849a6.09,6.09,0,0,1,3.03-8.06l4.22-1.913a5.712,5.712,0,0,0,2.849-7.552l-10.4-23.06a5.717,5.717,0,0,0-7.305-2.964l-5.934,2.343a6.1,6.1,0,0,1-7.9-3.429l-4.6-11.649a6.09,6.09,0,0,1,3.43-7.9l4.323-1.707a5.716,5.716,0,0,0,3.11-7.664l-5.507-12.205a5.692,5.692,0,0,0-5.845-3.327,88.854,88.854,0,0,1-69.023-154.54,5.711,5.711,0,1,0-7.614-8.515A100.242,100.242,0,0,0,165.269,294.5l1.391,3.082a17.517,17.517,0,0,0-8.632,22.18l4.6,11.651a17.536,17.536,0,0,0,22.722,9.861l.87-.344,5.834,12.929a17.513,17.513,0,0,0-7.757,22.713l5.174,11.407a17.513,17.513,0,0,0,22.111,9.161l7.881,17.466A17.382,17.382,0,0,0,211.374,423.858Z" style="fill:#333"/><path d="M311.3,200.24a5.712,5.712,0,0,0,1.375,7.96L455.309,308.8a14.538,14.538,0,0,1-15.964,24.283L422.037,322.5a5.713,5.713,0,0,0-7.859,1.9l-2.31,3.79a6.088,6.088,0,0,1-8.366,2.033l-10.7-6.515a6.087,6.087,0,0,1-2.032-8.366l2.343-3.85a5.713,5.713,0,0,0-1.9-7.843l-26.027-15.917a5.712,5.712,0,0,0-7.858,1.9l-2.377,3.9a6.086,6.086,0,0,1-8.366,2.035l-10.7-6.514a6.1,6.1,0,0,1-2.035-8.369l2.41-3.958a5.71,5.71,0,0,0-1.9-7.843l-21.582-13.2a5.711,5.711,0,0,0-7.7,1.662l-3.587,5.278a6.1,6.1,0,0,1-8.458,1.615l-10.359-7.04a6.1,6.1,0,0,1-1.614-8.458l2.612-3.845a5.711,5.711,0,0,0-1.745-8.083l-11.423-6.985a5.71,5.71,0,0,0-6.7.539,88.82,88.82,0,1,1-105.433-142.4,5.712,5.712,0,0,0-6.131-9.64A100.248,100.248,0,1,0,268.016,241.7l2.884,1.763a17.516,17.516,0,0,0,5.356,23.189l10.359,7.04a17.535,17.535,0,0,0,24.329-4.642l.527-.776,12.1,7.4a17.535,17.535,0,0,0,6.378,23.138l10.7,6.515a17.515,17.515,0,0,0,23.432-4.881l16.346,10a17.515,17.515,0,0,0,6.438,23.024l10.7,6.514a17.514,17.514,0,0,0,23.358-4.774l12.467,7.623a25.691,25.691,0,0,0,13.449,3.777A25.933,25.933,0,0,0,461.9,299.468l-142.638-100.6A5.71,5.71,0,0,0,311.3,200.24Z" style="fill:#333"/><path d="M62.114,145.905a5.71,5.71,0,0,0,1.111-8A62.987,62.987,0,1,1,176.49,99.961a63.333,63.333,0,0,1-.722,9.473A40.012,40.012,0,1,0,204.3,120.812a5.712,5.712,0,0,0-7.983,8.173,28.616,28.616,0,1,1-23.476-7.906,62.833,62.833,0,0,1-13.015,21.56,5.711,5.711,0,1,0,8.4,7.743,74.34,74.34,0,0,0,16-73.528,88.84,88.84,0,0,1,106.9,111.4c-.007.021-.006.042-.012.062a88.286,88.286,0,0,1-10.1,22.21,5.713,5.713,0,0,0,1.648,7.811l89.04,59.5a5.713,5.713,0,1,0,6.348-9.5l-84.529-56.489a99.693,99.693,0,0,0,9.094-22.15c.036-.128.039-.256.065-.384A100.286,100.286,0,0,0,179.78,66.2a74.4,74.4,0,1,0-125.667,78.6A5.71,5.71,0,0,0,62.114,145.905Z" style="fill:#333"/></svg>
