<svg height="512pt" viewBox="0 0 512 512" width="512pt" xmlns="http://www.w3.org/2000/svg"><path d="m512 256c0 141.386719-114.613281 256-256 256s-256-114.613281-256-256 114.613281-256 256-256 256 114.613281 256 256zm0 0" fill="#ffce00"/><path d="m508.558594 297.960938-199.234375-199.230469-187.035157 302.625 109.496094 109.496093c7.972656.75 16.046875 1.148438 24.214844 1.148438 127.089844 0 232.53125-92.617188 252.558594-214.039062zm0 0" fill="#fdba12"/><path d="m287.375 409h-145.226562c-16.359376 0-29.625-13.265625-29.625-29.625v-260.75c0-16.359375 13.265624-29.625 29.625-29.625h145.226562c16.359375 0 29.625 13.265625 29.625 29.625v260.75c0 16.359375-13.265625 29.625-29.625 29.625zm0 0" fill="#414952"/><path d="m287.375 89h-74.421875v320h74.421875c16.359375 0 29.625-13.265625 29.625-29.625v-260.75c0-16.359375-13.265625-29.625-29.625-29.625zm0 0" fill="#333940"/><path d="m128.761719 112.667969h172v272.667969h-172zm0 0" fill="#fff"/><path d="m212.953125 112.667969h87.808594v272.667969h-87.808594zm0 0" fill="#e9edf5"/><path d="m319.21875 310.324219 44.046875-44.046875 88.09375 88.09375-44.046875 44.046875zm0 0" fill="#fe6a16"/><path d="m340.617188 288.929688 22.648437-22.648438 88.09375 88.09375-22.652344 22.648438zm0 0" fill="#f24500"/><path d="m363.601562 159.085938c-41.855468-41.855469-109.71875-41.855469-151.578124 0-41.855469 41.855468-41.855469 109.722656 0 151.578124 41.859374 41.855469 109.722656 41.855469 151.578124 0 41.859376-41.855468 41.859376-109.722656 0-151.578124zm0 0" fill="#4a7aff"/><path d="m363.609375 310.664062c41.855469-41.859374 41.855469-109.722656 0-151.578124-41.859375-41.859376-109.722656-41.859376-151.582031 0-.207032.210937-.410156.421874-.617188.632812l151.5625 151.566406c.210938-.210937.425782-.410156.636719-.621094zm0 0" fill="#1f5edd"/><path d="m341.242188 181.445312c-29.507813-29.503906-77.347657-29.503906-106.855469 0-29.507813 29.507813-29.507813 77.351563 0 106.855469 29.507812 29.507813 77.347656 29.507813 106.855469 0 29.507812-29.503906 29.507812-77.347656 0-106.855469zm0 0" fill="#bfe1ff"/><path d="m341.246094 288.300781c29.507812-29.507812 29.507812-77.347656 0-106.855469-29.507813-29.507812-77.347656-29.507812-106.855469 0-.210937.210938-.402344.433594-.609375.644532l106.824219 106.824218c.210937-.207031.429687-.402343.640625-.613281zm0 0" fill="#87c7ff"/></svg>