<svg id="Capa_1" enable-background="new 0 0 512 512" height="512" viewBox="0 0 512 512" width="512" xmlns="http://www.w3.org/2000/svg" xmlns:xlink="http://www.w3.org/1999/xlink"><linearGradient id="SVGID_1_" gradientUnits="userSpaceOnUse" x1="63.476" x2="467.525" y1="256" y2="256"><stop offset=".0485" stop-color="#d2deff"/><stop offset=".9993" stop-color="#dcfdee"/></linearGradient><g><g><g><path d="m179.591.39c-68.06 4.435-134.218 61.127-111.591 135.073 18.265 59.691 84.702 87.73 134.671 115.676 47.928 26.805 98.6 60.229 112.037 117.192 9.247 39.199-2.084 84.916 22.012 117.187 42.331 56.693 124.077 13.634 130.314-47.258 5.176-50.542-31.51-94.701-65.828-132.165-33.267-36.317-70.462-71.374-99.992-110.843-27.345-36.55-41.639-81.985-5.379-118.188 8.145-8.132 17.848-16.505 14.872-29.734-9.77-43.394-97.816-49.109-131.116-46.94z" fill="url(#SVGID_1_)"/></g><g><path d="m460.115 199.475h-108.31v-120.43c0-16.57-13.43-30-30-30h-201.06c-16.57 0-30 13.43-30 30v71.938c-18.32 16.34-29.859 40.122-29.859 66.602s11.54 50.261 29.859 66.602v172.778c0 16.57 13.43 30 30 30h201.06c16.57 0 30-13.43 30-30v-39.652h39.063c19.416 0 35.34-14.913 36.967-33.908h32.281c5.53 0 10-4.48 10-10v-163.93c-.001-5.52-4.471-10-10.001-10z" fill="#2626bc" opacity=".1"/><g><g><path d="m351.805 55.045v377.92c0 16.57-13.43 30-30 30h-201.06c-16.57 0-30-13.43-30-30v-377.92c0-16.57 13.43-30 30-30h201.06c16.57 0 30 13.43 30 30z" fill="#fff"/><path d="m239.335 215.906c0 49.27-39.95 89.22-89.23 89.22-22.79 0-43.59-8.55-59.36-22.62v-133.2c15.77-14.08 36.57-22.62 59.36-22.62 49.28 0 89.23 39.94 89.23 89.22z" fill="#dcfdee"/><path d="m351.805 305.626v127.34c0 16.57-13.43 30-30 30h-201.06c-16.57 0-30-13.43-30-30v-127.34z" fill="#97ffd2"/><path d="m351.805 314.625v101.92h-81c-5.52 0-10-4.47-10-10v-23.91h-67.17c-5.53 0-10-4.48-10-10v-58.01z" fill="#02ffb3"/><path d="m276.867 47.98 7.157-22.939h-125.5l7.157 22.939c1.303 4.177 5.171 7.022 9.546 7.022h92.093c4.377 0 8.244-2.845 9.547-7.022z" fill="#6583fe"/><g><path d="m274.534 428.412h-106.519c-2.762 0-5-2.239-5-5s2.238-5 5-5h106.519c2.762 0 5 2.239 5 5s-2.238 5-5 5z" fill="#6583fe"/></g><g><path d="m145.108 53.371h-19c-2.761 0-5-2.239-5-5v-4.98c0-2.761 2.239-5 5-5h19c2.761 0 5 2.239 5 5v4.98c0 2.762-2.239 5-5 5z" fill="#b7c5ff"/><g><g><path d="m301.191 52.631c-2.761 0-5-2.239-5-5v-3.5c0-2.761 2.239-5 5-5s5 2.239 5 5v3.5c0 2.761-2.239 5-5 5z" fill="#b7c5ff"/></g><g><path d="m316.441 52.631c-2.761 0-5-2.239-5-5v-3.5c0-2.761 2.239-5 5-5s5 2.239 5 5v3.5c0 2.761-2.239 5-5 5z" fill="#b7c5ff"/></g></g></g></g><g><g><g><path d="m470.115 185.475v163.93c0 5.52-4.47 10-10 10h-266.48c-5.53 0-10-4.48-10-10v-163.93c0-5.52 4.47-10 10-10h266.48c5.53 0 10 4.48 10 10z" fill="#9fb0fe"/><path d="m239.335 215.906c0 37.41-23.03 69.45-55.7 82.7v-113.13c0-5.52 4.47-10 10-10h36.03c6.18 12.139 9.67 25.879 9.67 40.43z" fill="#8399fe"/><path d="m470.113 185.471-137.56 95.01c-3.42 2.36-7.94 2.36-11.36 0l-69.95-48.31-67.61-46.7c0-5.52 4.47-10 10-10h266.48c2.76 0 5.26 1.12 7.07 2.93s2.93 4.31 2.93 7.07z" fill="#b7c5ff"/></g></g></g><g><circle cx="150.108" cy="193.585" fill="#01eca5" r="89.223"/><g><path d="m150.108 257.49c-35.237 0-63.905-28.667-63.905-63.905 0-17.049 6.634-33.083 18.679-45.149 12.044-12.064 28.064-18.725 45.109-18.755h.114c16.837 0 32.765 6.646 44.862 18.722 12.281 12.259 19.045 28.481 19.045 45.677v9.293c0 12.787-10.403 23.191-23.191 23.191-5.111 0-9.842-1.662-13.679-4.474-7.18 6.631-16.436 10.256-26.258 10.256-.093 0-.185 0-.278-.001-10.454-.073-20.228-4.243-27.521-11.743-7.046-7.245-10.926-16.839-10.926-27.015s3.88-19.77 10.926-27.015c7.294-7.5 17.068-11.67 27.522-11.743 10.462-.078 20.285 3.959 27.677 11.351 1.17 1.17 1.828 2.757 1.828 4.412v32.78c0 5.905 4.805 10.71 10.71 10.71 5.906 0 10.71-4.805 10.71-10.71v-9.293c0-13.858-5.463-26.943-15.382-36.844-9.74-9.723-22.538-15.074-36.045-15.074-.03 0-.061 0-.091 0-28.303.051-51.33 23.119-51.33 51.424 0 28.355 23.069 51.424 51.424 51.424 3.446 0 6.24 2.794 6.24 6.24s-2.794 6.241-6.24 6.241zm.774-90.182c-.063 0-.125 0-.188.001-7.087.049-13.714 2.878-18.661 7.964-9.82 10.098-9.82 26.529 0 36.627 4.947 5.086 11.574 7.915 18.661 7.964 7.05.042 13.694-2.659 18.698-7.629-1.133-2.731-1.76-5.725-1.76-8.862v-30.035c-4.705-3.908-10.562-6.03-16.75-6.03z" fill="#ff7eb8"/></g></g><g><g><path d="m270.808 393.313h120.059c20.497 0 37.113-16.616 37.113-37.113 0-20.497-16.616-37.113-37.113-37.113h-92.946c-20.497 0-37.113 16.616-37.113 37.113v27.113c0 5.523 4.477 10 10 10z" fill="#ff7eb8"/></g><g><g><path d="m325.948 351.872h73.52c2.762 0 5-2.239 5-5s-2.238-5-5-5h-73.52c-2.762 0-5 2.239-5 5s2.239 5 5 5z" fill="#fff"/></g><g><path d="m295.948 370.528h103.519c2.762 0 5-2.239 5-5s-2.238-5-5-5h-103.519c-2.762 0-5 2.239-5 5s2.239 5 5 5z" fill="#fff"/></g></g></g><g><circle cx="287.615" cy="112.168" fill="#ff7eb8" r="39.258"/><path d="m304.228 106.361c0-9.161-7.453-16.613-16.613-16.613s-16.613 7.453-16.613 16.613c0 4.518 1.818 8.615 4.755 11.613-2.936 2.998-4.755 7.095-4.755 11.613 0 2.761 2.239 5 5 5s5-2.239 5-5c0-3.646 2.967-6.613 6.613-6.613s6.613 2.967 6.613 6.613c0 2.761 2.239 5 5 5s5-2.239 5-5c0-4.518-1.818-8.615-4.755-11.613 2.937-2.997 4.755-7.095 4.755-11.613zm-16.613-6.613c3.646 0 6.613 2.967 6.613 6.613s-2.967 6.613-6.613 6.613-6.613-2.967-6.613-6.613 2.967-6.613 6.613-6.613z" fill="#fff"/></g></g><path d="m398.795 149.025c-2.762 0-5-2.238-5-5 0-3.309-2.691-6-6-6-2.762 0-5-2.238-5-5s2.238-5 5-5c3.309 0 6-2.691 6-6 0-2.762 2.238-5 5-5s5 2.238 5 5c0 3.309 2.691 6 6 6 2.762 0 5 2.238 5 5s-2.238 5-5 5c-3.309 0-6 2.691-6 6 0 2.762-2.238 5-5 5z" fill="#01eca5"/><path d="m418.981 102.748c-2.762 0-5-2.238-5-5 0-3.309-2.691-6-6-6-2.762 0-5-2.238-5-5s2.238-5 5-5c3.309 0 6-2.691 6-6 0-2.762 2.238-5 5-5s5 2.238 5 5c0 3.309 2.691 6 6 6 2.762 0 5 2.238 5 5s-2.238 5-5 5c-3.309 0-6 2.691-6 6 0 2.762-2.238 5-5 5z" fill="#ff7eb8"/><path d="m390.788 464.742c-1.279 0-2.56-.488-3.535-1.465l-11-11c-1.953-1.952-1.953-5.118 0-7.07l11-11c1.951-1.953 5.119-1.953 7.07 0l11 11c1.953 1.952 1.953 5.118 0 7.07l-11 11c-.976.977-2.256 1.465-3.535 1.465zm-3.929-16 3.929 3.929 3.929-3.929-3.929-3.929z" fill="#01eca5"/><g fill="#6583fe"><path d="m452.236 149.025c-1.279 0-2.56-.488-3.535-1.465l-11-11c-1.953-1.952-1.953-5.118 0-7.07l11-11c1.951-1.953 5.119-1.953 7.07 0l11 11c1.953 1.952 1.953 5.118 0 7.07l-11 11c-.976.977-2.256 1.465-3.535 1.465zm-3.929-16 3.929 3.929 3.929-3.929-3.929-3.929z"/><path d="m52.884 309.809c-1.279 0-2.56-.488-3.535-1.465l-11-11c-1.953-1.952-1.953-5.118 0-7.07l11-11c1.951-1.953 5.119-1.953 7.07 0l11 11c1.953 1.952 1.953 5.118 0 7.07l-11 11c-.975.976-2.255 1.465-3.535 1.465zm-3.928-16 3.929 3.929 3.929-3.929-3.929-3.929z"/></g></g></g><path d="m460.116 170.47h-103.31v-115.431c0-19.299-15.701-35-35-35h-201.062c-19.299 0-35 15.701-35 35v69.802c-18.363 17.204-29.858 41.655-29.858 68.744 0 51.955 42.269 94.224 94.223 94.224 9.939 0 19.521-1.552 28.522-4.417v66.01c0 8.271 6.729 15 15 15h62.178v18.912c0 8.271 6.729 15 15 15h75.998v34.647c0 13.785-11.215 25-25 25h-201.063c-13.785 0-25-11.215-25-25v-137.881c0-2.762-2.238-5-5-5s-5 2.238-5 5v137.881c0 19.299 15.701 35 35 35h201.063c19.299 0 35-15.701 35-35v-34.647h34.062c20.416 0 37.478-14.604 41.305-33.912h27.943c8.271 0 15-6.729 15-15v-163.932c-.001-8.272-6.73-15-15.001-15zm-394.231 23.115c0-46.44 37.782-84.223 84.223-84.223s84.223 37.782 84.223 84.223-37.782 84.224-84.223 84.224-84.223-37.783-84.223-84.224zm324.983 194.728h-120.06c-2.757 0-5-2.243-5-5v-27.113c0-17.707 14.406-32.113 32.113-32.113h92.946c17.707 0 32.113 14.406 32.113 32.113s-14.405 32.113-32.112 32.113zm74.248-38.912c0 2.757-2.243 5-5 5h-27.18c-.947-22.39-19.449-40.314-42.068-40.314h-92.946c-22.618 0-41.121 17.925-42.068 40.314h-62.224c-2.757 0-5-2.243-5-5v-69.834c32.802-14.755 55.7-47.744 55.7-85.983 0-51.954-42.269-94.223-94.223-94.223-20.232 0-38.994 6.412-54.364 17.307v-61.63c0-13.785 11.215-25 25-25h201.063c13.785 0 25 11.215 25 25v115.432h-75.805c-2.762 0-5 2.238-5 5s2.238 5 5 5h189.114c2.757 0 5 2.243 5 5v163.931z" fill="#2626bc"/></g></svg>