<svg id="Capa_1" enable-background="new 0 0 512 512" height="512" viewBox="0 0 512 512" width="512" xmlns="http://www.w3.org/2000/svg" xmlns:xlink="http://www.w3.org/1999/xlink"><pattern id="Unnamed_Pattern_2" height="125.698" overflow="visible" patternUnits="userSpaceOnUse" viewBox="0 -125.698 125.865 125.698" width="125.865" x="1014" y="2516.5"><path d="m0-125.698h125.865v125.698h-125.865z" fill="none"/><path id="XMLID_57_" d="m0-125.698h125.865v125.698h-125.865z" fill="#ff5ba8" transform="matrix(-1 0 0 -1 125.865 -125.698)"/></pattern><linearGradient id="SVGID_1_" gradientUnits="userSpaceOnUse" x1="-9.013" x2="466.02" y1="136.614" y2="364.904"><stop offset="0" stop-color="#c7d3ff"/><stop offset=".593" stop-color="#e7d8f5"/><stop offset=".997" stop-color="#ffdbed"/></linearGradient><path d="m471.476 116.934c-65.417-50.293-128.867-9.306-199.64-23.797-71.285-14.597-99.685-63.201-180.876-40.766-71.922 19.873-115.562 99.551-76.024 166.258 11.267 19.009 30.461 33.35 38.305 54.619 12.653 34.311-6.607 60.653-2.85 94.372 15.612 140.101 229.574 85.834 308.303 42.245 123.47-68.36 206.998-220.497 112.782-292.931z" fill="url(#SVGID_1_)"/><path d="m373.66 245.311c-.85-.92-1.73-1.81-2.64-2.67-8.91-8.33-20.89-13.43-34.06-13.43h-84.44v-158.865c0-4.81-3.89-8.71-8.7-8.71h-145.65c-4.81 0-8.71 3.9-8.71 8.71v158.87h-3.487c-11.743 0-21.263 9.52-21.263 21.263v212.866c0 11.743 9.52 21.263 21.263 21.263l250.987.003c27.57 0 49.91-22.35 49.91-49.92v-155.55c0-13.06-5.01-24.93-13.21-33.83z" fill="#2626bc" opacity=".11"/><path d="m273.52 49.35v221.49h-163.06v-221.49c0-4.81 3.9-8.71 8.71-8.71h145.65c4.81 0 8.7 3.9 8.7 8.71z" fill="#02ffb3"/><path d="m273.52 85.83v185.01h-93.77v-176.31c0-4.81 3.9-8.7 8.71-8.7z" fill="#01eca5"/><path d="m358.81 83.026v187.81h-163.06v-187.81c0-4.81 3.9-8.7 8.71-8.7h145.65c4.8 0 8.7 3.89 8.7 8.7z" fill="#9fb0fe"/><path d="m407.87 258.141v155.55c0 27.57-22.34 49.92-49.91 49.92h-204.56c-11.75 0-21.27-9.52-21.27-21.27v-212.86c0-11.75 9.52-21.27 21.27-21.27h204.56c13.17 0 25.15 5.1 34.06 13.43.91.86 1.79 1.75 2.64 2.67 8.2 8.9 13.21 20.77 13.21 33.83z" fill="#6583fe"/><path d="m407.874 303.482v94.714h-107.035c-5.873 0-10.634-4.748-10.634-10.621v-73.458c0-5.873 4.761-10.634 10.634-10.634h107.035z" fill="#4369fd"/><path d="m85.71 442.345c0 11.743 9.52 21.263 21.263 21.263h204.558c27.573 0 49.925-22.352 49.925-49.925v-155.542c0-27.573-22.352-49.925-49.925-49.925h-204.558c-11.743 0-21.263 9.52-21.263 21.263z" fill="#ff7eb8"/><path d="m361.453 303.482v94.714h-60.614c-5.873 0-10.634-4.748-10.634-10.621v-73.458c0-5.873 4.761-10.634 10.634-10.634h60.614z" fill="url(#Unnamed_Pattern_2)"/><path d="m415.659 383.272h-114.82c-5.872 0-10.631-4.76-10.631-10.632v-73.457c0-5.872 4.76-10.632 10.631-10.632h114.82c5.872 0 10.632 4.76 10.632 10.632v73.457c-.001 5.872-4.761 10.632-10.632 10.632z" fill="#8399fe"/><path d="m426.29 299.181v73.46c0 5.87-4.76 10.63-10.63 10.63h-15.67c5.87 0 10.63-4.76 10.63-10.63v-73.46c0-5.87-4.76-10.63-10.63-10.63h15.67c5.87 0 10.63 4.76 10.63 10.63z" fill="#9fb0fe"/><path d="m376.418 383.272h-75.58c-5.872 0-10.631-4.76-10.631-10.632v-73.457c0-5.872 4.76-10.632 10.631-10.632h75.58c5.872 0 10.632 4.76 10.632 10.632v73.457c-.001 5.872-4.76 10.632-10.632 10.632z" fill="#ffa8cf"/><path d="m387.05 299.181v73.46c0 5.87-4.76 10.63-10.63 10.63h-15.67c5.87 0 10.63-4.76 10.63-10.63v-73.46c0-5.87-4.76-10.63-10.63-10.63h15.67c5.87 0 10.63 4.76 10.63 10.63z" fill="#ffc4df"/><path d="m213.236 295.691h-88.549c-3.612 0-6.54-2.928-6.54-6.54v-20.601c0-3.612 2.928-6.54 6.54-6.54h88.549c3.612 0 6.54 2.928 6.54 6.54v20.601c.001 3.612-2.928 6.54-6.54 6.54z" fill="#ffdbed"/><path d="m170.072 328.827h-45.385c-3.612 0-6.54-2.928-6.54-6.54v-4.905c0-3.612 2.928-6.54 6.54-6.54h45.385c3.612 0 6.54 2.928 6.54 6.54v4.905c0 3.612-2.928 6.54-6.54 6.54z" fill="#ff5ba8"/><path d="m178.093 249.256h-52.752c-3.973 0-7.194-3.221-7.194-7.194 0-3.973 3.221-7.194 7.194-7.194h52.752c3.973 0 7.194 3.221 7.194 7.194 0 3.973-3.221 7.194-7.194 7.194z" fill="#ffdbed"/><path d="m332.455 316.536h-16.752c-3.145 0-5.694-2.549-5.694-5.694 0-3.145 2.549-5.694 5.694-5.694h16.752c3.145 0 5.694 2.549 5.694 5.694 0 3.145-2.549 5.694-5.694 5.694z" fill="#ffdbed"/><g fill="#d2deff"><path d="m315.66 134.134c-1.28 0-2.559-.488-3.536-1.464-1.953-1.953-1.953-5.119 0-7.071l17.667-17.667c1.953-1.952 5.118-1.952 7.071 0 1.953 1.953 1.953 5.119 0 7.071l-17.667 17.667c-.976.976-2.255 1.464-3.535 1.464z"/><path d="m289.342 134.134c-1.28 0-2.559-.488-3.536-1.464-1.953-1.953-1.953-5.119 0-7.071l17.667-17.667c1.953-1.952 5.118-1.952 7.071 0 1.953 1.953 1.953 5.119 0 7.071l-17.667 17.667c-.976.976-2.255 1.464-3.535 1.464z"/><path d="m315.66 169.573c-1.28 0-2.559-.488-3.536-1.464-1.953-1.953-1.953-5.119 0-7.071l17.667-17.667c1.953-1.952 5.118-1.952 7.071 0 1.953 1.953 1.953 5.119 0 7.071l-17.667 17.667c-.976.975-2.255 1.464-3.535 1.464z"/><path d="m289.342 169.573c-1.28 0-2.559-.488-3.536-1.464-1.953-1.953-1.953-5.119 0-7.071l17.667-17.667c1.953-1.952 5.118-1.952 7.071 0 1.953 1.953 1.953 5.119 0 7.071l-17.667 17.667c-.976.975-2.255 1.464-3.535 1.464z"/></g><path d="m157.612 84.471h-1.243v-9.335h5.974c2.761 0 5-2.239 5-5s-2.239-5-5-5h-5.974v-2.199c0-2.761-2.239-5-5-5s-5 2.239-5 5v2.199h-1.243c-8.088 0-14.667 6.58-14.667 14.667s6.58 14.667 14.667 14.667h1.243v9.335h-5.974c-2.761 0-5 2.239-5 5s2.239 5 5 5h5.974v2.199c0 2.761 2.239 5 5 5s5-2.239 5-5v-2.199h1.243c8.088 0 14.667-6.58 14.667-14.667s-6.579-14.667-14.667-14.667zm-12.486 0c-2.574 0-4.667-2.094-4.667-4.667s2.094-4.667 4.667-4.667h1.243v9.335h-1.243zm12.486 19.335h-1.243v-9.335h1.243c2.574 0 4.667 2.094 4.667 4.667s-2.093 4.668-4.667 4.668z" fill="#fff"/><path d="m415.659 283.552h-49.203v-25.411c0-18.554-9.257-34.976-23.384-44.925h14.884c24.771 0 44.925 20.153 44.925 44.925v2.498c0 2.761 2.239 5 5 5s5-2.239 5-5v-2.498c0-28.307-21.527-51.676-49.069-54.609v-120.507c0-7.557-6.147-13.704-13.704-13.704h-71.582v-19.978c0-7.557-6.148-13.704-13.705-13.704h-92.591c-2.761 0-5 2.239-5 5s2.239 5 5 5h92.591c2.042 0 3.705 1.662 3.705 3.704v19.978h-64.069c-7.557 0-13.705 6.147-13.705 13.704v120.191h-75.286v-153.873c0-2.042 1.662-3.704 3.704-3.704h24.961c2.761 0 5-2.239 5-5s-2.239-5-5-5h-24.961c-7.557 0-13.704 6.147-13.704 13.704v153.919c-13.782.785-24.755 12.241-24.755 26.216v212.866c0 14.481 11.782 26.263 26.263 26.263h250.982c30.286 0 54.925-24.639 54.925-54.925v-25.412h2.779c8.619 0 15.631-7.012 15.631-15.631v-73.457c-.001-8.618-7.013-15.63-15.632-15.63zm-33.61 15.632v73.457c0 3.105-2.526 5.631-5.631 5.631h-75.58c-3.105 0-5.631-2.526-5.631-5.631v-73.457c0-3.105 2.526-5.632 5.631-5.632h75.58c3.105 0 5.631 2.527 5.631 5.632zm-181.298-216.159c0-2.042 1.662-3.704 3.705-3.704h145.651c2.042 0 3.704 1.662 3.704 3.704v120.191h-153.06zm-93.778 375.583c-8.968 0-16.263-7.295-16.263-16.263v-212.866c0-8.967 7.295-16.263 16.263-16.263h204.558c24.771 0 44.925 20.153 44.925 44.925v25.411h-55.617c-8.619 0-15.631 7.012-15.631 15.632v73.457c0 8.619 7.012 15.631 15.631 15.631h55.617v25.412c0 24.771-20.153 44.925-44.925 44.925h-204.558zm295.907-44.924c0 24.771-20.153 44.925-44.925 44.925h-14.884c14.128-9.948 23.384-26.371 23.384-44.925v-25.412h36.424v25.412zm18.41-41.043c0 3.105-2.526 5.631-5.631 5.631h-24.676c.679-1.75 1.066-3.644 1.066-5.631v-73.457c0-1.987-.387-3.882-1.066-5.632h24.676c3.105 0 5.631 2.526 5.631 5.632z" fill="#2626bc"/><path d="m249.213 134.727h-19.008c.537-1.411.818-2.923.818-4.478v-6.311h6.422c2.761 0 5-2.239 5-5s-2.239-5-5-5h-6.422v-6.355c0-2.948 2.399-5.347 5.347-5.347s5.347 2.398 5.347 5.347c0 2.761 2.239 5 5 5s5-2.239 5-5c0-8.462-6.884-15.347-15.347-15.347s-15.347 6.884-15.347 15.347v6.355h-.961c-2.761 0-5 2.239-5 5s2.239 5 5 5h.961v6.311c0 .684-.266 1.327-.751 1.812-2.129 2.13-2.76 5.304-1.607 8.086s3.843 4.58 6.855 4.58h23.693c2.761 0 5-2.239 5-5s-2.238-5-5-5z" fill="#d2deff"/><path d="m450.21 221.618h-3.25v-3.25c0-2.761-2.239-5-5-5s-5 2.239-5 5v3.25h-3.25c-2.761 0-5 2.239-5 5s2.239 5 5 5h3.25v3.25c0 2.761 2.239 5 5 5s5-2.239 5-5v-3.25h3.25c2.761 0 5-2.239 5-5s-2.239-5-5-5z" fill="#ff7eb8"/><path d="m318.259 35.639h-3.25v-3.25c0-2.761-2.239-5-5-5s-5 2.239-5 5v3.25h-3.25c-2.761 0-5 2.239-5 5s2.239 5 5 5h3.25v3.25c0 2.761 2.239 5 5 5s5-2.239 5-5v-3.25h3.25c2.761 0 5-2.239 5-5s-2.238-5-5-5z" fill="#01eca5"/><path d="m77 167.58h-3.25v-3.25c0-2.761-2.239-5-5-5s-5 2.239-5 5v3.25h-3.25c-2.761 0-5 2.239-5 5s2.239 5 5 5h3.25v3.25c0 2.761 2.239 5 5 5s5-2.239 5-5v-3.25h3.25c2.761 0 5-2.239 5-5s-2.239-5-5-5z" fill="#ff7eb8"/><path d="m428.81 193.092c-8.052 0-14.603-6.551-14.603-14.603s6.551-14.603 14.603-14.603 14.603 6.551 14.603 14.603-6.551 14.603-14.603 14.603zm0-19.206c-2.538 0-4.603 2.065-4.603 4.603s2.065 4.603 4.603 4.603 4.603-2.064 4.603-4.603-2.065-4.603-4.603-4.603z" fill="#8399fe"/><path d="m36.397 435.7c-8.052 0-14.603-6.551-14.603-14.603s6.551-14.603 14.603-14.603 14.603 6.551 14.603 14.603-6.551 14.603-14.603 14.603zm0-19.206c-2.538 0-4.603 2.064-4.603 4.603s2.065 4.603 4.603 4.603 4.603-2.065 4.603-4.603-2.064-4.603-4.603-4.603z" fill="#01eca5"/></svg>