<?xml version="1.0" encoding="iso-8859-1"?>
<!-- Generator: Adobe Illustrator 19.0.0, SVG Export Plug-In . SVG Version: 6.00 Build 0)  -->
<svg version="1.1" id="Capa_1" xmlns="http://www.w3.org/2000/svg" xmlns:xlink="http://www.w3.org/1999/xlink" x="0px" y="0px"
	 viewBox="0 0 512 512" style="enable-background:new 0 0 512 512;" xml:space="preserve">
<path style="fill:#193651;" d="M37.6,336C16.8,336,0,319.2,0,298.4h16c0,12,9.6,21.6,21.6,21.6s21.6-9.6,21.6-21.6h16
	C75.2,319.2,58.4,336,37.6,336z"/>
<path style="fill:#FFFFFF;" d="M504,290.4h-41.6c-5.6-21.6-17.6-41.6-33.6-59.2l14.4-71.2c-28-3.2-54.4,8-72,28.8
	c-32.8-16-71.2-25.6-112.8-25.6c-115.2,0-208,71.2-208,159.2c0,60,43.2,112,107.2,139.2L139.2,504h55.2l13.6-27.2
	c16,3.2,32.8,4.8,50.4,4.8s34.4-1.6,50.4-4.8l13.6,27.2h55.2l-18.4-42.4c52-22.4,90.4-60.8,103.2-107.2H504V290.4z"/>
<path style="fill:#193651;" d="M389.6,512h-72L304,485.6c-30.4,4.8-61.6,4.8-92,0L199.2,512h-72l20-46.4
	C82.4,435.2,42.4,380.8,42.4,322.4c0-92,96.8-167.2,216-167.2c39.2,0,77.6,8,110.4,23.2c19.2-20,47.2-29.6,75.2-27.2l8.8,0.8
	l-15.2,76c14.4,16.8,24.8,34.4,31.2,53.6H512v80h-44c-13.6,43.2-48.8,80-98.4,103.2L389.6,512z M327.2,496h37.6L348,457.6l7.2-3.2
	c51.2-21.6,87.2-58.4,98.4-101.6l1.6-5.6h40v-48h-40l-1.6-5.6c-5.6-20-16-39.2-32-56l-2.4-3.2l13.6-66.4c-21.6,0-42.4,9.6-56,26.4
	l-4,4.8l-5.6-2.4c-32.8-16-70.4-24.8-108.8-24.8c-110.4,0-200,68-200,151.2c0,54.4,39.2,104.8,102.4,132l7.2,3.2L151.2,496h37.6
	l14.4-28.8l5.6,0.8c32,6.4,65.6,6.4,97.6,0l5.6-0.8L327.2,496z"/>
<rect x="303.984" y="399.307" transform="matrix(-0.551 -0.8345 0.8345 -0.551 143.9879 892.0859)" style="fill:#193651;" width="16" height="16"/>
<rect x="342.986" y="373.738" transform="matrix(-0.551 -0.8345 0.8345 -0.551 225.8184 884.9757)" style="fill:#193651;" width="16" height="16"/>
<rect x="381.932" y="348.169" transform="matrix(-0.551 -0.8345 0.8345 -0.551 307.5619 877.8187)" style="fill:#193651;" width="16" height="16"/>
<path style="fill:#FFBF5D;" d="M256,8L256,8c-48,0-87.2,39.2-87.2,87.2l0,0c0,48,39.2,87.2,87.2,87.2l0,0c48,0,87.2-39.2,87.2-87.2
	l0,0C343.2,47.2,304,8,256,8z"/>
<path style="fill:#193651;" d="M256,190.4c-52.8,0-95.2-42.4-95.2-95.2S203.2,0,256,0s95.2,42.4,95.2,95.2S308.8,190.4,256,190.4z
	 M256,16c-44,0-79.2,35.2-79.2,79.2s35.2,79.2,79.2,79.2s79.2-35.2,79.2-79.2S300,16,256,16z"/>
<g>
	<rect x="171.2" y="228" style="fill:#193651;" width="161.6" height="16"/>
	<path style="fill:#193651;" d="M422.4,287.2h-16c0-7.2-10.4-14.4-24.8-14.4v-16C404.8,256.8,422.4,270.4,422.4,287.2z"/>
</g>
<g>
</g>
<g>
</g>
<g>
</g>
<g>
</g>
<g>
</g>
<g>
</g>
<g>
</g>
<g>
</g>
<g>
</g>
<g>
</g>
<g>
</g>
<g>
</g>
<g>
</g>
<g>
</g>
<g>
</g>
</svg>
