<svg id="Capa_1" enable-background="new 0 0 512 512" height="512" viewBox="0 0 512 512" width="512" xmlns="http://www.w3.org/2000/svg" xmlns:xlink="http://www.w3.org/1999/xlink"><linearGradient id="SVGID_1_" gradientTransform="matrix(.987 .163 -.163 .987 31.975 122.003)" gradientUnits="userSpaceOnUse" x1="464.12" x2="139.147" y1="164.551" y2="32.917"><stop offset=".0112" stop-color="#dcfdee"/><stop offset=".7774" stop-color="#ccddfb"/><stop offset="1" stop-color="#c7d3ff"/></linearGradient><path d="m347.661.425c-95.818 8.652-105.091 192.428-146.416 286.587-20.478 46.658-68.772 94.794-60.258 149.782 9.605 62.035 72.897 80.075 121.683 74.14 120.723-14.685 172.899-141.053 180.797-260.801 4.869-73.829 20.3-260.192-95.806-249.708z" fill="url(#SVGID_1_)"/><path d="m389.725 123.949h-.983c.034 0 .066-.005.1-.005h-137.525v-37.613c0-5.151-4.18-9.331-9.331-9.331h-84.908c-5.151 0-9.331 4.18-9.331 9.331v69.046c0 5.151 4.18 9.331 9.331 9.331h30.37v88.792h-61.086c-11.506 0-20.834 9.328-20.834 20.834v122.913h-30.035c-5.752 0-10.418 4.666-10.418 10.418v16.67c0 11.503 9.332 20.835 20.835 20.835h19.619 103.922c8.753 15.42 25.31 25.83 44.308 25.83h25.421c28.126 0 50.927-22.801 50.927-50.927 0-25.782-19.162-47.075-44.019-50.448v-18.202h61.085c11.503 0 20.835-9.332 20.835-20.835v-153.494h32.135c5.753 0 10.417-4.664 10.417-10.417v-21.895c-.001-11.505-9.329-20.833-20.835-20.833z" fill="#2626bc" opacity=".11"/><path d="m431.556 126.78v21.9c0 5.75-4.66 10.41-10.41 10.41h-45.14v-32.31c0-11.5-9.33-20.83-20.84-20.83h55.56c2.06 0 4.04.3 5.92.86 8.62 2.55 14.91 10.53 14.91 19.97z" fill="#6583fe"/><path d="m416.646 106.81c-8.91 2.36-15.48 10.49-15.48 20.14v32.14h-25.16v-32.31c0-11.5-9.33-20.83-20.84-20.83h55.56c2.06 0 4.04.3 5.92.86z" fill="#4369fd"/><path d="m409.85 105.94c-11.51 0-20.84 9.34-20.84 20.84v185.81c0 11.5-9.33 20.83-20.83 20.83h-159.73v-206.64c0-11.5 9.33-20.84 20.84-20.84z" fill="#97ffd2"/><path d="m272.32 105.94v45.21c0 5.15-4.18 9.33-9.33 9.33h-54.54v-33.7c0-11.5 9.33-20.84 20.84-20.84z" fill="#02ffb3"/><path d="m358.086 130.33c0 2.76-2.24 5-5 5h-80.77c-2.76 0-5-2.24-5-5s2.24-5 5-5h80.77c2.76 0 5 2.24 5 5z" fill="#fff"/><path d="m352.669 154.156h-23.195c-2.762 0-5-2.239-5-5s2.238-5 5-5h23.195c2.762 0 5 2.239 5 5s-2.239 5-5 5z" fill="#fff"/><path d="m345.186 311.405h-105.498v-119.457c0-3.314 2.686-6 6-6h90.101c14.892 0 26.965 12.072 26.965 26.965v80.925c0 9.702-7.866 17.567-17.568 17.567z" fill="#ffdbed"/><path d="m369.056 333.42h-76.39v-77.09c0-11.5-9.33-20.83-20.83-20.83h55.55c2.27 0 4.45.36 6.5 1.04 8.33 2.72 14.34 10.56 14.34 19.79v56.26c0 11.5 9.33 20.83 20.83 20.83z" fill="#6583fe"/><path d="m333.886 236.54c-8.33 2.72-14.34 10.56-14.34 19.79v77.09h-26.88v-77.09c0-11.5-9.33-20.83-20.83-20.83h55.55c2.27 0 4.45.36 6.5 1.04z" fill="#4369fd"/><path d="m327.926 235.5c-11.51 0-20.84 9.33-20.84 20.83v150.01c0 11.5-9.33 20.83-20.83 20.83h-159.73v-170.84c0-11.5 9.33-20.83 20.84-20.83z" fill="#dcfdee"/><path d="m292.668 235.5h35.253" fill="#dcffef"/><path d="m263.146 358.5v31.48c0 3.3-2.67 5.97-5.97 5.97h-88.05c-3.3 0-5.97-2.67-5.97-5.97v-31.48c0-3.3 2.67-5.97 5.97-5.97h88.05c3.3 0 5.97 2.67 5.97 5.97z" fill="#ffdbed"/><path d="m287.466 427.17h-180.56c-11.5 0-20.83-9.33-20.83-20.84v-16.67c0-5.75 4.67-10.41 10.42-10.41h159.72c5.75 0 10.42 4.66 10.42 10.41v16.67c0 11.51 9.33 20.84 20.83 20.84z" fill="#6583fe"/><path d="m272.316 68.33v69.05c0 5.15-4.18 9.33-9.33 9.33h-84.91c-5.15 0-9.33-4.18-9.33-9.33v-69.05c0-5.15 4.18-9.33 9.33-9.33h84.91c5.15 0 9.33 4.18 9.33 9.33z" fill="#ffa8cf"/><path d="m209.957 88.319h-16.707c-2.762 0-5-2.239-5-5s2.238-5 5-5h16.707c2.762 0 5 2.239 5 5s-2.238 5-5 5z" fill="#ff7eb8"/><path d="m272.316 68.33v69.05c0 5.15-4.18 9.33-9.33 9.33h-16.4c5.15 0 9.33-4.18 9.33-9.33v-69.05c0-5.15-4.18-9.33-9.33-9.33h16.4c5.15 0 9.33 4.18 9.33 9.33z" fill="#ffc4df"/><path d="m272.316 86.41v50.97c0 5.15-4.18 9.33-9.33 9.33h-84.91c-5.15 0-9.33-4.18-9.33-9.33v-15.65h17.6c2.65 0 5.2-1.05 7.07-2.93l13.28-13.28c1.88-1.87 4.42-2.93 7.08-2.93h38.22c1.36 0 2.69-.28 3.92-.8 1.17-.5 2.24-1.21 3.15-2.13z" fill="#8399fe"/><path d="m272.316 86.41v50.97c0 5.15-4.18 9.33-9.33 9.33h-16.4c5.15 0 9.33-4.18 9.33-9.33v-35.59c1.17-.5 2.24-1.21 3.15-2.13z" fill="#9fb0fe"/><path d="m300.179 453c28.126 0 50.927-22.801 50.927-50.927s-22.801-50.927-50.927-50.927h-25.421v101.854z" fill="#4369fd"/><circle cx="274.759" cy="402.073" fill="#02ffb3" r="50.927"/><path d="m169.121 322.074h88.058c3.295 0 5.967-2.671 5.967-5.967v-31.488c0-3.295-2.671-5.967-5.967-5.967h-88.058c-3.295 0-5.967 2.671-5.967 5.967v31.488c0 3.296 2.672 5.967 5.967 5.967z" fill="#ffdbed"/><path d="m178.27 283.652h-16.707c-2.762 0-5-2.239-5-5s2.238-5 5-5h16.707c2.762 0 5 2.239 5 5s-2.238 5-5 5z" fill="#02ffb3"/><path d="m213.373 314.879h-51.81c-2.762 0-5-2.239-5-5s2.238-5 5-5h51.81c2.762 0 5 2.239 5 5s-2.239 5-5 5z" fill="#ff7eb8"/><path d="m238.083 331.763h-76.52c-2.762 0-5-2.239-5-5s2.238-5 5-5h76.52c2.762 0 5 2.239 5 5s-2.239 5-5 5z" fill="#ff7eb8"/><g fill="#ffa8cf"><circle cx="308.775" cy="212.299" r="5.59"/><circle cx="325.686" cy="212.299" r="5.59"/><circle cx="342.596" cy="212.299" r="5.59"/></g><path d="m258.532 176.736h-14c-2.762 0-5-2.239-5-5s2.238-5 5-5h14c2.762 0 5 2.239 5 5s-2.238 5-5 5z" fill="#ffdbed"/><path d="m431.535 320.229c-2.734 0-5.497-.765-7.953-2.367-6.744-4.398-8.653-13.463-4.256-20.208 4.398-6.745 13.465-8.654 20.209-4.255 3.267 2.13 5.509 5.405 6.313 9.222s.073 7.718-2.057 10.985c0 0 0 0-.001 0-2.796 4.29-7.48 6.623-12.255 6.623zm8.068-9.353h.01zm-8.038-9.846c-1.505 0-2.981.735-3.863 2.087-1.386 2.125-.783 4.983 1.343 6.37 2.123 1.384 4.983.785 6.37-1.342 1.385-2.126.783-4.983-1.342-6.369-.774-.505-1.646-.746-2.508-.746z" fill="#8399fe"/><path d="m213.15 482.214c-8.053 0-14.604-6.551-14.604-14.603s6.551-14.603 14.604-14.603c8.052 0 14.603 6.551 14.603 14.603s-6.551 14.603-14.603 14.603zm0-19.206c-2.538 0-4.604 2.064-4.604 4.603s2.065 4.603 4.604 4.603 4.603-2.065 4.603-4.603-2.065-4.603-4.603-4.603z" fill="#8399fe"/><path d="m122.198 198.709h-3.25v-3.25c0-2.761-2.238-5-5-5s-5 2.239-5 5v3.25h-3.25c-2.762 0-5 2.239-5 5s2.238 5 5 5h3.25v3.25c0 2.761 2.238 5 5 5s5-2.239 5-5v-3.25h3.25c2.762 0 5-2.239 5-5s-2.238-5-5-5z" fill="#01eca5"/><path d="m359.356 67.363h-3.25v-3.25c0-2.761-2.238-5-5-5s-5 2.239-5 5v3.25h-3.25c-2.762 0-5 2.239-5 5s2.238 5 5 5h3.25v3.25c0 2.761 2.238 5 5 5s5-2.239 5-5v-3.25h3.25c2.762 0 5-2.239 5-5s-2.238-5-5-5z" fill="#ff7eb8"/><path d="m423.666 355.411h-3.25v-3.25c0-2.761-2.238-5-5-5s-5 2.239-5 5v3.25h-3.25c-2.762 0-5 2.239-5 5s2.238 5 5 5h3.25v3.25c0 2.761 2.238 5 5 5s5-2.239 5-5v-3.25h3.25c2.762 0 5-2.239 5-5s-2.238-5-5-5z" fill="#ff7eb8"/><path d="m410.725 100.949h-133.408v-32.618c0-7.902-6.429-14.331-14.331-14.331h-84.908c-7.901 0-14.33 6.429-14.33 14.331l-.002 69.049c0 7.902 6.428 14.33 14.329 14.33h25.373v78.79h-56.086c-14.244 0-25.833 11.589-25.833 25.834v117.918h-25.035c-8.501 0-15.417 6.916-15.417 15.417v16.667c0 14.245 11.589 25.833 25.833 25.833h120.315c.139 0 .27-.03.406-.041 9.946 15.54 27.347 25.871 47.127 25.871h25.421c30.838 0 55.927-25.089 55.927-55.927 0-26.751-18.885-49.164-44.02-54.638v-9.017s57.168-.024 57.269-.03c13.698-.621 24.651-11.955 24.651-25.804v-124.833c0-2.761-2.238-5-5-5s-5 2.239-5 5v124.834c0 8.582-6.867 15.574-15.392 15.812-8.525-.237-15.391-7.229-15.392-15.81v-56.252c0-14.007-11.207-25.438-25.124-25.815-.061-.002-.117-.018-.178-.018-.089 0-.177.006-.265.007-.089-.001-.176-.007-.265-.007-.061 0-.118.016-.178.018-13.918.378-25.125 11.808-25.125 25.816v89.861c-.635-.021-1.268-.048-1.907-.048h-25.421c-20.714 0-38.82 11.328-48.485 28.106h-94.745v-117.92c0-8.731 7.103-15.834 15.833-15.834h137.106c2.762 0 5-2.239 5-5s-2.238-5-5-5h-71.021v-78.79h49.537c5.432 0 10.169-3.039 12.598-7.505 1.105-2.031 1.734-4.358 1.734-6.828v-26.427h112.124c-3.404 4.376-5.434 9.872-5.434 15.834v32.311c0 2.761 2.238 5 5 5h32.135c8.501 0 15.417-6.916 15.417-15.417v-21.894c.001-14.246-11.588-25.835-25.833-25.835zm-83.069 139.564c8.607.144 15.568 7.179 15.568 15.82v56.253c.001 5.96 2.03 11.456 5.435 15.832h-36.571v-72.084c-.001-8.641 6.96-15.677 15.568-15.821zm18.45 161.56c0 22.857-16.786 41.862-38.677 45.349 14.072-10.167 23.256-26.701 23.256-45.349s-9.183-35.182-23.256-45.349c21.892 3.487 38.677 22.492 38.677 45.349zm-71.347-45.927c25.324 0 45.927 20.603 45.927 45.927s-20.603 45.927-45.927 45.927-45.927-20.603-45.927-45.927 20.603-45.927 45.927-45.927zm-52.177 66.024h-115.672c-8.73 0-15.833-7.103-15.833-15.833v-16.667c0-2.987 2.43-5.417 5.417-5.417h125.266c-1.889 5.602-2.928 11.59-2.928 17.821 0 7.082 1.337 13.854 3.75 20.096zm44.733-284.79c0 .609-.129 1.188-.357 1.714-.667 1.535-2.195 2.613-3.972 2.613h-84.908c-2.388 0-4.33-1.943-4.33-4.331v-10.646h12.598c3.962 0 7.831-1.605 10.605-4.395l13.271-13.271c.956-.951 2.218-1.475 3.554-1.475h38.221c2.018 0 3.991-.402 5.885-1.202 1.797-.768 3.392-1.849 4.72-3.192l4.715-4.714v38.899zm-89.237-73.38h84.908c2.388 0 4.331 1.943 4.331 4.331v16.006l-11.807 11.807c-.434.439-.958.792-1.54 1.041-.637.269-1.301.405-1.974.405h-38.221c-3.997 0-7.764 1.558-10.615 4.395l-13.289 13.289c-.921.926-2.206 1.457-3.525 1.457h-12.598v-48.4c0-2.388 1.942-4.331 4.33-4.331zm248.481 84.677c0 2.987-2.43 5.417-5.417 5.417h-27.135v-27.311c0-8.731 7.103-15.834 15.833-15.834h.885c8.73 0 15.834 7.103 15.834 15.834z" fill="#2626bc"/><path d="m281.307 427.352h-18.059c-2.762 0-5-2.239-5-5s2.238-5 5-5h18.059c2.835 0 5.141-2.306 5.141-5.14s-2.306-5.14-5.141-5.14h-13.097c-8.348 0-15.14-6.792-15.14-15.141 0-8.348 6.792-15.14 15.14-15.14h18.06c2.762 0 5 2.239 5 5s-2.238 5-5 5h-18.06c-2.834 0-5.14 2.306-5.14 5.14s2.306 5.141 5.14 5.141h13.097c8.349 0 15.141 6.792 15.141 15.14s-6.793 15.14-15.141 15.14z" fill="#fff"/><path d="m274.759 434.903c-2.762 0-5-2.239-5-5v-55.663c0-2.761 2.238-5 5-5s5 2.239 5 5v55.664c0 2.761-2.238 4.999-5 4.999z" fill="#fff"/><path d="m279.759 278.652c0-9.16-7.453-16.613-16.613-16.613s-16.613 7.453-16.613 16.613c0 4.518 1.818 8.615 4.755 11.613-2.936 2.998-4.755 7.095-4.755 11.613 0 2.761 2.238 5 5 5s5-2.239 5-5c0-3.646 2.967-6.613 6.613-6.613s6.613 2.967 6.613 6.613c0 2.761 2.238 5 5 5s5-2.239 5-5c0-4.518-1.818-8.615-4.755-11.613 2.937-2.997 4.755-7.095 4.755-11.613zm-16.613-6.612c3.646 0 6.613 2.966 6.613 6.613s-2.967 6.613-6.613 6.613-6.613-2.967-6.613-6.613 2.966-6.613 6.613-6.613z" fill="#ff7eb8"/><path d="m275.816 209.827h-41.4c-2.762 0-5-2.239-5-5s2.238-5 5-5h41.4c1.335 0 2.591-.521 3.536-1.465l13.281-13.28c2.832-2.833 6.599-4.394 10.605-4.394h38.227c1.336 0 2.592-.52 3.535-1.464l15.69-15.69c1.951-1.952 5.119-1.952 7.07 0 1.953 1.953 1.953 5.119 0 7.071l-15.689 15.689c-2.832 2.833-6.599 4.393-10.606 4.393h-38.227c-1.335 0-2.59.52-3.534 1.464l-13.282 13.281c-2.833 2.835-6.6 4.395-10.606 4.395z" fill="#ff7eb8"/></svg>