<svg height="494pt" viewBox="0 -39 494.09673 494" width="494pt" xmlns="http://www.w3.org/2000/svg"><g fill="#173851"><path d="m449.765625 396.316406h-8c-2.214844 0-4-1.792968-4-4 0-2.207031 1.785156-4 4-4h4v-4c0-2.207031 1.785156-4 4-4 2.210937 0 4 1.792969 4 4v8c0 2.210938-1.789063 4-4 4zm0 0"/><path d="m425.902344 396.316406h-15.863282c-2.210937 0-4-1.792968-4-4 0-2.207031 1.789063-4 4-4h15.863282c2.214844 0 4 1.792969 4 4 0 2.207032-1.789063 4-4 4zm-31.726563 0h-15.863281c-2.210938 0-4-1.792968-4-4 0-2.207031 1.789062-4 4-4h15.863281c2.210938 0 4 1.792969 4 4 0 2.207032-1.789062 4-4 4zm-31.726562 0h-15.863281c-2.214844 0-4-1.792968-4-4 0-2.207031 1.785156-4 4-4h15.863281c2.210937 0 4 1.792969 4 4 0 2.207032-1.789063 4-4 4zm-31.726563 0h-15.863281c-2.210937 0-4-1.792968-4-4 0-2.207031 1.789063-4 4-4h15.863281c2.214844 0 4 1.792969 4 4 0 2.207032-1.789062 4-4 4zm-31.726562 0h-15.863282c-2.210937 0-4-1.792968-4-4 0-2.207031 1.789063-4 4-4h15.863282c2.210937 0 4 1.792969 4 4 0 2.207032-1.789063 4-4 4zm-31.726563 0h-15.867187c-2.210938 0-4-1.792968-4-4 0-2.207031 1.789062-4 4-4h15.867187c2.210938 0 4 1.792969 4 4 0 2.207032-1.789062 4-4 4zm-31.726562 0h-15.863281c-2.210938 0-4-1.792968-4-4 0-2.207031 1.789062-4 4-4h15.863281c2.214843 0 4 1.792969 4 4 0 2.207032-1.789063 4-4 4zm-31.726563 0h-15.863281c-2.214844 0-4-1.792968-4-4 0-2.207031 1.785156-4 4-4h15.863281c2.210938 0 4 1.792969 4 4 0 2.207032-1.789062 4-4 4zm-31.726562 0h-15.867188c-2.210937 0-4-1.792968-4-4 0-2.207031 1.789063-4 4-4h15.867188c2.210937 0 4 1.792969 4 4 0 2.207032-1.789063 4-4 4zm-31.726563 0h-15.863281c-2.210938 0-4-1.792968-4-4 0-2.207031 1.789062-4 4-4h15.863281c2.210938 0 4 1.792969 4 4 0 2.207032-1.789062 4-4 4zm-31.726562 0h-15.863281c-2.214844 0-4-1.792968-4-4 0-2.207031 1.785156-4 4-4h15.863281c2.210937 0 4 1.792969 4 4 0 2.207032-1.789063 4-4 4zm0 0"/><path d="m76.910156 396.316406h-8c-2.210937 0-4-1.792968-4-4v-8c0-2.207031 1.789063-4 4-4 2.214844 0 4 1.792969 4 4v4h4c2.214844 0 4 1.792969 4 4 0 2.207032-1.789062 4-4 4zm0 0"/><path d="m68.910156 372.832031c-2.210937 0-4-1.792969-4-4v-15.488281c0-2.207031 1.789063-4 4-4 2.214844 0 4 1.792969 4 4v15.488281c0 2.210938-1.789062 4-4 4zm0-30.96875c-2.210937 0-4-1.789062-4-4v-15.488281c0-2.207031 1.789063-4 4-4 2.214844 0 4 1.792969 4 4v15.488281c0 2.210938-1.789062 4-4 4zm0-30.972656c-2.210937 0-4-1.789063-4-4v-15.484375c0-2.210938 1.789063-4 4-4 2.214844 0 4 1.789062 4 4v15.484375c0 2.210937-1.789062 4-4 4zm0-30.96875c-2.210937 0-4-1.792969-4-4v-15.484375c0-2.210938 1.789063-4 4-4 2.214844 0 4 1.789062 4 4v15.484375c0 2.207031-1.789062 4-4 4zm0-30.972656c-2.210937 0-4-1.792969-4-4v-15.484375c0-2.207032 1.789063-4 4-4 2.214844 0 4 1.792968 4 4v15.484375c0 2.207031-1.789062 4-4 4zm0-30.972657c-2.210937 0-4-1.792968-4-4v-15.484374c0-2.207032 1.789063-4 4-4 2.214844 0 4 1.792968 4 4v15.484374c0 2.210938-1.789062 4-4 4zm0-30.96875c-2.210937 0-4-1.792968-4-4v-15.488281c0-2.207031 1.789063-4 4-4 2.214844 0 4 1.792969 4 4v15.488281c0 2.207032-1.789062 4-4 4zm0-30.972656c-2.210937 0-4-1.789062-4-4v-15.488281c0-2.207031 1.789063-4 4-4 2.214844 0 4 1.792969 4 4v15.488281c0 2.210938-1.789062 4-4 4zm0-30.972656c-2.210937 0-4-1.789062-4-4v-15.484375c0-2.210937 1.789063-4 4-4 2.214844 0 4 1.789063 4 4v15.484375c0 2.214844-1.789062 4-4 4zm0-30.96875c-2.210937 0-4-1.792969-4-4v-15.484375c0-2.210937 1.789063-4 4-4 2.214844 0 4 1.789063 4 4v15.484375c0 2.207031-1.789062 4-4 4zm0-30.96875c-2.210937 0-4-1.792969-4-4v-15.484375c0-2.207031 1.789063-4 4-4 2.214844 0 4 1.792969 4 4v15.484375c0 2.207031-1.789062 4-4 4zm0 0"/><path d="m68.910156 32.152344c-2.210937 0-4-1.792969-4-4v-8c0-2.207032 1.789063-4 4-4h8c2.214844 0 4 1.792968 4 4 0 2.207031-1.785156 4-4 4h-4v4c0 2.207031-1.789062 4-4 4zm0 0"/><path d="m425.902344 24.152344h-15.863282c-2.210937 0-4-1.792969-4-4 0-2.207032 1.789063-4 4-4h15.863282c2.214844 0 4 1.792968 4 4 0 2.207031-1.789063 4-4 4zm-31.726563 0h-15.863281c-2.210938 0-4-1.792969-4-4 0-2.207032 1.789062-4 4-4h15.863281c2.210938 0 4 1.792968 4 4 0 2.207031-1.789062 4-4 4zm-31.726562 0h-15.863281c-2.214844 0-4-1.792969-4-4 0-2.207032 1.785156-4 4-4h15.863281c2.210937 0 4 1.792968 4 4 0 2.207031-1.789063 4-4 4zm-31.726563 0h-15.863281c-2.210937 0-4-1.792969-4-4 0-2.207032 1.789063-4 4-4h15.863281c2.214844 0 4 1.792968 4 4 0 2.207031-1.789062 4-4 4zm-31.726562 0h-15.863282c-2.210937 0-4-1.792969-4-4 0-2.207032 1.789063-4 4-4h15.863282c2.210937 0 4 1.792968 4 4 0 2.207031-1.789063 4-4 4zm-31.726563 0h-15.867187c-2.210938 0-4-1.792969-4-4 0-2.207032 1.789062-4 4-4h15.867187c2.210938 0 4 1.792968 4 4 0 2.207031-1.789062 4-4 4zm-31.726562 0h-15.863281c-2.210938 0-4-1.792969-4-4 0-2.207032 1.789062-4 4-4h15.863281c2.214843 0 4 1.792968 4 4 0 2.207031-1.789063 4-4 4zm-31.726563 0h-15.863281c-2.214844 0-4-1.792969-4-4 0-2.207032 1.785156-4 4-4h15.863281c2.210938 0 4 1.792968 4 4 0 2.207031-1.789062 4-4 4zm-31.726562 0h-15.867188c-2.210937 0-4-1.792969-4-4 0-2.207032 1.789063-4 4-4h15.867188c2.210937 0 4 1.792968 4 4 0 2.207031-1.789063 4-4 4zm-31.726563 0h-15.863281c-2.210938 0-4-1.792969-4-4 0-2.207032 1.789062-4 4-4h15.863281c2.210938 0 4 1.792968 4 4 0 2.207031-1.789062 4-4 4zm-31.726562 0h-15.863281c-2.214844 0-4-1.792969-4-4 0-2.207032 1.785156-4 4-4h15.863281c2.210937 0 4 1.792968 4 4 0 2.207031-1.789063 4-4 4zm0 0"/><path d="m449.765625 32.152344c-2.214844 0-4-1.792969-4-4v-4h-4c-2.214844 0-4-1.792969-4-4 0-2.207032 1.785156-4 4-4h8c2.210937 0 4 1.792968 4 4v8c0 2.207031-1.789063 4-4 4zm0 0"/><path d="m449.765625 372.832031c-2.214844 0-4-1.792969-4-4v-15.484375c0-2.207031 1.785156-4 4-4 2.210937 0 4 1.792969 4 4v15.484375c0 2.207031-1.789063 4-4 4zm0-30.972656c-2.214844 0-4-1.789063-4-4v-15.484375c0-2.207031 1.785156-4 4-4 2.210937 0 4 1.792969 4 4v15.484375c0 2.210937-1.789063 4-4 4zm0-30.972656c-2.214844 0-4-1.789063-4-4v-15.488281c0-2.207032 1.785156-4 4-4 2.210937 0 4 1.792968 4 4v15.488281c0 2.214843-1.789063 4-4 4zm0-30.964844c-2.214844 0-4-1.792969-4-4v-15.488281c0-2.210938 1.785156-4 4-4 2.210937 0 4 1.789062 4 4v15.488281c0 2.207031-1.789063 4-4 4zm0-30.972656c-2.214844 0-4-1.792969-4-4v-15.488281c0-2.207032 1.785156-4 4-4 2.210937 0 4 1.792968 4 4v15.488281c0 2.207031-1.789063 4-4 4zm0-30.972657c-2.214844 0-4-1.792968-4-4v-15.484374c0-2.207032 1.785156-4 4-4 2.210937 0 4 1.792968 4 4v15.484374c0 2.207032-1.789063 4-4 4zm0-30.972656c-2.214844 0-4-1.792968-4-4v-15.484375c0-2.207031 1.785156-4 4-4 2.210937 0 4 1.792969 4 4v15.484375c0 2.210938-1.789063 4-4 4zm0-30.96875c-2.214844 0-4-1.789062-4-4v-15.484375c0-2.207031 1.785156-4 4-4 2.210937 0 4 1.792969 4 4v15.484375c0 2.210938-1.789063 4-4 4zm0-30.972656c-2.214844 0-4-1.789062-4-4v-15.484375c0-2.210937 1.785156-4 4-4 2.210937 0 4 1.789063 4 4v15.484375c0 2.210938-1.789063 4-4 4zm0-30.96875c-2.214844 0-4-1.792969-4-4v-15.484375c0-2.210937 1.785156-4 4-4 2.210937 0 4 1.789063 4 4v15.488281c0 2.203125-1.789063 3.996094-4 3.996094zm0-30.96875c-2.214844 0-4-1.792969-4-4v-15.488281c0-2.207031 1.785156-4 4-4 2.210937 0 4 1.792969 4 4v15.488281c0 2.207031-1.789063 4-4 4zm0 0"/></g><path d="m51.71875 4.046875h34.25v34.734375h-34.25zm0 0" fill="#f8bc5c"/><path d="m85.96875 42.78125h-34.25c-2.210938 0-4-1.792969-4-4v-34.734375c0-2.207031 1.789062-4 4-4h34.253906c2.210938 0 4 1.792969 4 4v34.734375c-.003906 2.207031-1.792968 4-4.003906 4zm-30.25-8h26.253906v-26.734375h-26.253906zm0 0" fill="#173851"/><path d="m432.496094 4.046875h34.246094v34.734375h-34.246094zm0 0" fill="#f8bc5c"/><path d="m466.746094 42.78125h-34.25c-2.210938 0-4-1.792969-4-4v-34.734375c0-2.207031 1.789062-4 4-4h34.25c2.214844 0 4 1.792969 4 4v34.734375c0 2.207031-1.789063 4-4 4zm-30.25-8h26.25v-26.734375h-26.25zm0 0" fill="#173851"/><path d="m51.71875 377.316406h34.25v34.730469h-34.25zm0 0" fill="#f8bc5c"/><path d="m85.96875 416.046875h-34.25c-2.210938 0-4-1.789063-4-4v-34.730469c0-2.207031 1.789062-4 4-4h34.253906c2.210938 0 4 1.792969 4 4v34.730469c-.003906 2.210937-1.792968 4-4.003906 4zm-30.25-8h26.253906v-26.730469h-26.253906zm0 0" fill="#173851"/><path d="m432.496094 377.316406h34.246094v34.730469h-34.246094zm0 0" fill="#f8bc5c"/><path d="m466.746094 416.046875h-34.25c-2.210938 0-4-1.789063-4-4v-34.730469c0-2.207031 1.789062-4 4-4h34.25c2.214844 0 4 1.792969 4 4v34.730469c0 2.210937-1.789063 4-4 4zm-30.25-8h26.25v-26.730469h-26.25zm0 0" fill="#173851"/><path d="m373.632812 86.371094-107.539062 69.535156h224.003906l-107.539062-69.535156c-2.675782-1.921875-6.253906-1.921875-8.925782 0zm0 0" fill="#45c9a5"/><path d="m490.097656 159.90625h-224.003906c-1.773438 0-3.335938-1.167969-3.835938-2.871094-.503906-1.699218.175782-3.527344 1.664063-4.492187l107.460937-69.484375c4.050782-2.855469 9.460938-2.84375 13.507813.066406l107.378906 69.417969c1.488281.964843 2.167969 2.792969 1.664063 4.492187-.5 1.703125-2.0625 2.871094-3.835938 2.871094zm-210.449218-8h196.894531l-96.15625-62.175781c-1.433594-1.03125-3.144531-1.027344-4.414063-.109375-.058594.035156-.109375.074218-.164062.109375zm93.984374-65.535156h.039063zm0 0" fill="#173851"/><path d="m266.09375 155.90625h224.003906v17.679688h-224.003906zm0 0" fill="#fff"/><path d="m490.097656 177.585938h-224.003906c-2.214844 0-4-1.792969-4-4v-17.679688c0-2.210938 1.785156-4 4-4h224.003906c2.210938 0 4 1.789062 4 4v17.679688c0 2.210937-1.789062 4-4 4zm-220.003906-8h216.003906v-9.679688h-216.003906zm0 0" fill="#173851"/><path d="m266.09375 309.367188h224.003906v18.171874h-224.003906zm0 0" fill="#45c9a5"/><path d="m490.097656 331.539062h-224.003906c-2.214844 0-4-1.789062-4-4v-18.171874c0-2.207032 1.785156-4 4-4h224.003906c2.210938 0 4 1.792968 4 4v18.171874c0 2.210938-1.789062 4-4 4zm-220.003906-8h216.003906v-10.171874h-216.003906zm0 0" fill="#173851"/><path d="m285.488281 292.15625h40.199219v17.210938h-40.199219zm0 0" fill="#fff"/><path d="m325.6875 313.367188h-40.199219c-2.210937 0-4-1.789063-4-4v-17.210938c0-2.207031 1.789063-4 4-4h40.199219c2.210938 0 4 1.792969 4 4v17.210938c0 2.210937-1.789062 4-4 4zm-36.199219-8h32.199219v-9.210938h-32.199219zm0 0" fill="#173851"/><path d="m285.34375 173.585938h40.484375v16h-40.484375zm0 0" fill="#fff"/><path d="m325.828125 193.585938h-40.484375c-2.210938 0-4-1.792969-4-4v-16c0-2.210938 1.789062-4 4-4h40.484375c2.210937 0 4 1.789062 4 4v16c0 2.210937-1.789063 4-4 4zm-36.484375-8h32.484375v-8h-32.484375zm0 0" fill="#173851"/><path d="m295.316406 189.585938h20.542969v102.566406h-20.542969zm0 0" fill="#45c9a5"/><path d="m315.859375 296.15625h-20.542969c-2.210937 0-4-1.792969-4-4v-102.570312c0-2.210938 1.789063-4 4-4h20.542969c2.210937 0 4 1.789062 4 4v102.570312c0 2.207031-1.789063 4-4 4zm-16.542969-8h12.542969v-94.570312h-12.542969zm0 0" fill="#173851"/><path d="m357.4375 173.585938h40.484375v16h-40.484375zm0 0" fill="#fff"/><path d="m397.914062 193.585938h-40.480468c-2.214844 0-4-1.792969-4-4v-16c0-2.210938 1.785156-4 4-4h40.480468c2.214844 0 4 1.789062 4 4v16c0 2.210937-1.785156 4-4 4zm-36.480468-8h32.480468v-8h-32.480468zm0 0" fill="#173851"/><path d="m367.402344 189.585938h20.546875v102.566406h-20.546875zm0 0" fill="#45c9a5"/><path d="m387.949219 296.15625h-20.550781c-2.210938 0-4-1.792969-4-4v-102.570312c0-2.210938 1.789062-4 4-4h20.550781c2.210937 0 4 1.789062 4 4v102.570312c0 2.207031-1.789063 4-4 4zm-16.546875-8h12.550781v-94.570312h-12.550781zm0 0" fill="#173851"/><path d="m357.574219 292.15625h40.203125v17.210938h-40.203125zm0 0" fill="#fff"/><path d="m397.773438 313.367188h-40.195313c-2.210937 0-4-1.789063-4-4v-17.210938c0-2.207031 1.789063-4 4-4h40.199219c2.210937 0 4 1.792969 4 4v17.210938c-.003906 2.210937-1.792969 4-4.003906 4zm-36.195313-8h32.199219v-9.210938h-32.199219zm0 0" fill="#173851"/><path d="m429.523438 173.585938h40.484374v16h-40.484374zm0 0" fill="#fff"/><path d="m470.007812 193.585938h-40.484374c-2.210938 0-4-1.792969-4-4v-16c0-2.210938 1.789062-4 4-4h40.484374c2.210938 0 4 1.789062 4 4v16c0 2.210937-1.789062 4-4 4zm-36.484374-8h32.484374v-8h-32.484374zm0 0" fill="#173851"/><path d="m439.492188 189.585938h20.542968v102.566406h-20.542968zm0 0" fill="#45c9a5"/><path d="m460.035156 296.15625h-20.542968c-2.210938 0-4-1.792969-4-4v-102.570312c0-2.210938 1.789062-4 4-4h20.542968c2.210938 0 4 1.789062 4 4v102.570312c0 2.207031-1.789062 4-4 4zm-16.542968-8h12.542968v-94.570312h-12.542968zm0 0" fill="#173851"/><path d="m429.664062 292.15625h40.199219v17.210938h-40.199219zm0 0" fill="#fff"/><path d="m469.863281 313.367188h-40.199219c-2.210937 0-4-1.789063-4-4v-17.210938c0-2.207031 1.789063-4 4-4h40.199219c2.210938 0 4 1.792969 4 4v17.210938c0 2.210937-1.789062 4-4 4zm-36.199219-8h32.199219v-9.210938h-32.199219zm0 0" fill="#173851"/><path d="m142.152344 244.386719c0-38.683594-30.925782-70.046875-69.078125-70.046875-38.148438 0-69.074219 31.363281-69.074219 70.046875 0 38.6875 30.925781 70.050781 69.074219 70.050781 38.152343 0 69.078125-31.363281 69.078125-70.050781zm0 0" fill="#fff"/><path d="m73.078125 318.4375c-40.296875 0-73.078125-33.222656-73.078125-74.050781s32.78125-74.046875 73.078125-74.046875c40.292969 0 73.078125 33.21875 73.078125 74.046875s-32.785156 74.050781-73.078125 74.050781zm0-140.097656c-35.882813 0-65.078125 29.628906-65.078125 66.046875 0 36.421875 29.195312 66.050781 65.078125 66.050781 35.886719 0 65.078125-29.628906 65.078125-66.050781 0-36.417969-29.195312-66.046875-65.078125-66.046875zm0 0" fill="#173851"/><path d="m73.078125 292.984375c-26.425781 0-47.921875-21.800781-47.921875-48.597656 0-26.792969 21.496094-48.59375 47.921875-48.59375s47.921875 21.800781 47.921875 48.59375c0 26.796875-21.5 48.597656-47.921875 48.597656zm0 0" fill="#28a7e6"/><path d="m69.960938 282.507812v-9.378906c-5.3125-.09375-10.804688-1.765625-14.011719-4.085937l2.195312-6.222657c3.300781 2.226563 8.058594 3.992188 13.1875 3.992188 6.5 0 10.894531-3.808594 10.894531-9.101562 0-5.105469-3.570312-8.261719-10.347656-11.050782-9.339844-3.714844-15.105468-7.988281-15.105468-16.066406 0-7.710938 5.398437-13.5625 13.828124-14.953125v-9.378906h5.679688v9.007812c5.496094.1875 9.246094 1.671875 11.902344 3.25l-2.289063 6.128907c-1.921875-1.117188-5.679687-3.15625-11.539062-3.15625-7.050781 0-9.707031 4.273437-9.707031 7.988281 0 4.828125 3.386718 7.242187 11.355468 10.589843 9.433594 3.898438 14.191406 8.730469 14.191406 16.992188 0 7.335938-5.035156 14.210938-14.46875 15.789062v9.65625zm0 0" fill="#fff"/><path d="m75.730469 283.507812h-5.769531c-.554688 0-1-.449218-1-1v-8.414062c-5.101563-.265625-10.347657-1.890625-13.59375-4.242188-.359376-.257812-.503907-.726562-.355469-1.144531l2.195312-6.222656c.101563-.292969.335938-.519531.628907-.617187.292968-.097657.621093-.050782.871093.121093 3.59375 2.429688 8.195313 3.824219 12.628907 3.824219 5.828124 0 9.898437-3.332031 9.898437-8.101562 0-4.351563-2.820313-7.28125-9.726563-10.121094-8.164062-3.25-15.730468-7.558594-15.730468-16.992188 0-7.949218 5.398437-14.070312 13.828125-15.785156v-8.546875c0-.554687.445312-1 1-1h5.675781c.550781 0 1 .445313 1 1v8.054687c4.351562.273438 8.089844 1.371094 11.414062 3.34375.417969.25.59375.757813.425782 1.207032l-2.289063 6.128906c-.105469.277344-.324219.492188-.601562.59375-.277344.097656-.582031.070312-.835938-.078125-1.558593-.902344-5.207031-3.019531-11.039062-3.019531-6.421875 0-8.707031 3.765625-8.707031 6.988281 0 4 2.410156 6.167969 10.742187 9.664063 10.378906 4.292968 14.804687 9.652343 14.804687 17.914062 0 8.242188-5.773437 14.824219-14.46875 16.617188v8.828124c.003907.550782-.445312 1-.996093 1zm-4.769531-2h3.765624v-8.65625c0-.488281.351563-.90625.835938-.988281 8.28125-1.386719 13.632812-7.195312 13.632812-14.800781 0-7.425781-3.929687-12.082031-13.574218-16.070312-7.941406-3.332032-11.972656-6.023438-11.972656-11.507813 0-4.472656 3.3125-8.988281 10.707031-8.988281 4.949219 0 8.441406 1.351562 11.007812 2.714844l1.585938-4.238282c-3.097657-1.675781-6.609375-2.5625-10.710938-2.699218-.539062-.019532-.960937-.460938-.960937-1v-8.007813h-3.675782v8.378906c0 .492188-.359374.90625-.835937.988281-7.898437 1.304688-12.992187 6.785157-12.992187 13.964844 0 6.746094 4.058593 10.992188 14.480468 15.132813 7.695313 3.167969 10.972656 6.75 10.972656 11.980469 0 5.949218-4.894531 10.101562-11.898437 10.101562-4.386719 0-8.929687-1.257812-12.664063-3.476562l-1.519531 4.3125c3.164063 2.019531 8.195313 3.398437 12.824219 3.480468.546875.007813.984375.457032.984375 1v8.378906zm0 0" fill="#fff"/><path d="m226.414062 245.195312h-63.460937c-2.214844 0-4-1.789062-4-4 0-2.207031 1.785156-4 4-4h63.457031c2.214844 0 4 1.792969 4 4 0 2.210938-1.785156 4-3.996094 4zm0 0" fill="#173851"/><path d="m247.570312 202.292969h-63.464843c-2.214844 0-4-1.792969-4-4s1.785156-4 4-4h63.460937c2.214844 0 4 1.792969 4 4s-1.785156 4-3.996094 4zm0 0" fill="#173851"/><path d="m247.570312 288.101562h-63.464843c-2.214844 0-4-1.792968-4-4 0-2.210937 1.785156-4 4-4h63.460937c2.214844 0 4 1.789063 4 4 0 2.207032-1.785156 4-3.996094 4zm0 0" fill="#173851"/></svg>