<svg id="Capa_1" enable-background="new 0 0 512 512" height="512" viewBox="0 0 512 512" width="512" xmlns="http://www.w3.org/2000/svg"><path d="m363.916 283.976h-36.021v30.209h36.021c8.328 0 15.104-6.775 15.104-15.104s-6.776-15.105-15.104-15.105z"/><path d="m356.578 253.959c8.329 0 15.104-6.775 15.104-15.104s-6.776-15.105-15.104-15.105h-28.683v30.209z"/><path d="m207.704 111.692h136.903v-17.954c0-22.228-18.084-40.311-40.312-40.311h-263.984c-22.227 0-40.311 18.083-40.311 40.311v176.342c0 22.228 18.084 40.311 40.311 40.311h35.754l.558 59.921 60.753-53.042v-135.251c0-38.779 31.549-70.327 70.328-70.327z"/><path d="m512 358.361v-176.342c0-22.228-18.084-40.311-40.312-40.311h-263.984c-22.228 0-40.312 18.083-40.312 40.311v176.341c0 22.228 18.084 40.311 40.312 40.311h159.033l68.734 59.901.434-59.901h35.784c22.227.001 40.311-18.082 40.311-40.31zm-148.084-14.16h-8.025v22.044h-30.017v-22.044h-44.511v-30.017h16.516v-90.434h-16.516v-30.017h44.511v-22.044h30.017v22.044h.687c24.88 0 45.121 20.242 45.121 45.122 0 9.713-3.095 18.711-8.336 26.081 9.588 8.281 15.674 20.511 15.674 34.144-.001 24.881-20.242 45.121-45.121 45.121z"/></svg>